<svg width="24" height="24" viewBox="0 0 24 24" fill="none" xmlns="http://www.w3.org/2000/svg">
<path fill-rule="evenodd" clip-rule="evenodd" d="M23.52 12.2727C23.52 11.4218 23.4436 10.6036 23.3018 9.81812H12V14.4599H18.4582C18.18 15.9599 17.3346 17.2308 16.0636 18.0818V21.0927H19.9418C22.2109 19.0036 23.52 15.9272 23.52 12.2727Z" fill="#4285F4"/>
<path fill-rule="evenodd" clip-rule="evenodd" d="M12 24.001C15.24 24.001 17.9564 22.9265 19.9418 21.0937L16.0637 18.0828C14.9891 18.8028 13.6146 19.2283 12 19.2283C8.87456 19.2283 6.2291 17.1174 5.28546 14.281H1.27637V17.3901C3.25091 21.3119 7.3091 24.001 12 24.001Z" fill="#34A853"/>
<path fill-rule="evenodd" clip-rule="evenodd" d="M5.28546 14.2808C5.04546 13.5608 4.9091 12.7917 4.9091 12.0008C4.9091 11.2099 5.04546 10.4408 5.28546 9.72079V6.61169H1.27636C0.463637 8.2317 0 10.0644 0 12.0008C0 13.9372 0.463637 15.7699 1.27636 17.3899L5.28546 14.2808Z" fill="#FBBC05"/>
<path fill-rule="evenodd" clip-rule="evenodd" d="M12 4.7731C13.7618 4.7731 15.3437 5.37855 16.5873 6.56765L20.0291 3.12582C17.9509 1.18946 15.2346 0.000366211 12 0.000366211C7.3091 0.000366211 3.25091 2.68946 1.27637 6.61128L5.28546 9.72038C6.2291 6.88401 8.87456 4.7731 12 4.7731Z" fill="#EA4335"/>
</svg>
