<svg width="155" height="44" viewBox="0 0 155 44" fill="none" xmlns="http://www.w3.org/2000/svg">
<path d="M154.321 2.77653V34.2941C154.319 34.6607 154.246 35.0235 154.104 35.3616C153.962 35.6996 153.755 36.0063 153.494 36.2639C153.233 36.5216 152.924 36.7251 152.584 36.8628C152.244 37.0004 151.881 37.0696 151.514 37.0662H33.2867C33.1784 37.0719 33.0699 37.0632 32.9639 37.0403C32.5917 36.9664 32.2567 36.7654 32.0164 36.4717C31.7761 36.178 31.6454 35.8099 31.6467 35.4305V8.35515C31.649 8.00346 31.5124 7.66508 31.2665 7.41358C31.0207 7.16209 30.6855 7.01782 30.3338 7.01215H15.3412C15.1657 7.01904 14.9976 7.08507 14.8643 7.1995C14.731 7.31394 14.6403 7.47006 14.6069 7.64255C14.5735 7.81504 14.5993 7.99375 14.6803 8.14968C14.7613 8.3056 14.8926 8.42958 15.0528 8.50151L24.5658 12.651C25.0201 12.8491 25.4062 13.1762 25.6763 13.5917C25.9464 14.0072 26.0886 14.4928 26.0853 14.9884V42.3392C26.0895 42.552 26.0395 42.7624 25.9401 42.9507C25.8407 43.139 25.6951 43.2989 25.517 43.4155C25.3389 43.5321 25.1341 43.6015 24.9217 43.6173C24.7094 43.6331 24.4966 43.5947 24.3032 43.5057L9.457 37.049H2.77641C2.41201 37.0495 2.05108 36.9782 1.71426 36.8392C1.37744 36.7001 1.07132 36.496 0.813452 36.2386C0.555582 35.9811 0.350995 35.6753 0.211415 35.3387C0.0718354 35.0021 -4.39313e-07 34.6413 0 34.2769V2.77653C0 2.04018 0.292512 1.33399 0.813189 0.813309C1.33387 0.292632 2.04006 0.000119972 2.77641 0.000119972H151.514C151.881 -0.00328901 152.245 0.0659824 152.585 0.203929C152.925 0.341877 153.235 0.545781 153.496 0.803877C153.756 1.06197 153.964 1.36915 154.105 1.70772C154.247 2.04629 154.32 2.40954 154.321 2.77653Z" fill="#FC821F"/>
<path d="M26.0982 37.0232V14.9884C26.1021 14.4927 25.9601 14.0068 25.69 13.5912C25.4198 13.1756 25.0333 12.8487 24.5787 12.6511L15.0528 8.50154C14.8923 8.42942 14.7609 8.30508 14.68 8.14874C14.5992 7.99241 14.5737 7.8133 14.6076 7.64061C14.6415 7.46791 14.733 7.3118 14.867 7.19769C15.001 7.08358 15.1697 7.01819 15.3455 7.01219H30.3338C30.6858 7.01673 31.0217 7.16065 31.2678 7.41239C31.5139 7.66413 31.6501 8.00316 31.6467 8.35519V35.4133C31.6446 35.793 31.775 36.1615 32.0154 36.4554C32.2559 36.7492 32.5913 36.95 32.9639 37.0232H26.0982Z" fill="white"/>
<path d="M52.4288 29.8303L52.3729 28.9952H52.3513C52.1219 29.3147 51.8152 29.5707 51.4599 29.7394C51.1045 29.908 50.7122 29.9837 50.3196 29.9594C48.5591 29.9594 47.272 28.5949 47.272 26.7138C47.272 24.8328 48.5634 23.4639 50.3196 23.4639C50.7084 23.4378 51.0973 23.5106 51.4503 23.6754C51.8034 23.8403 52.1089 24.0918 52.3384 24.4066H52.3643L52.4288 23.5974H53.8751V29.8303H52.4288ZM52.1921 26.7138C52.1661 26.4063 52.0512 26.113 51.8613 25.8698C51.6714 25.6266 51.4148 25.4439 51.1228 25.3442C50.8307 25.2444 50.516 25.2319 50.217 25.3081C49.9179 25.3844 49.6476 25.546 49.4389 25.7734C49.2303 26.0008 49.0924 26.284 49.0422 26.5885C48.9919 26.893 49.0314 27.2055 49.1559 27.4879C49.2803 27.7702 49.4844 28.0103 49.743 28.1786C50.0017 28.3469 50.3037 28.4362 50.6123 28.4356C50.8323 28.4365 51.05 28.3915 51.2516 28.3033C51.4531 28.2152 51.6341 28.086 51.7828 27.9239C51.9315 27.7618 52.0447 27.5705 52.1152 27.3621C52.1857 27.1537 52.2119 26.9329 52.1921 26.7138Z" fill="white"/>
<path d="M62.4454 20.6273V22.2415H62.3808C62.0901 22.0617 61.754 21.9691 61.4123 21.9746C61.2876 21.9676 61.163 21.9879 61.0469 22.0339C60.9309 22.0799 60.8262 22.1506 60.7402 22.2411C60.6542 22.3316 60.589 22.4397 60.5489 22.558C60.5089 22.6762 60.495 22.8018 60.5083 22.9259V23.6189H62.299V25.0953H60.5083V29.8303H58.7865V25.0953H57.7104V23.6189H58.7435V22.8785C58.7435 21.3117 59.5785 20.4379 61.1196 20.4379C61.5598 20.4214 61.9988 20.4931 62.4109 20.6488" fill="white"/>
<path d="M69.3326 26.7138C69.3445 27.1506 69.2658 27.5852 69.1014 27.9901C68.9371 28.3949 68.6906 28.7614 68.3776 29.0663C68.0646 29.3712 67.6918 29.608 67.2828 29.7617C66.8737 29.9154 66.4373 29.9827 66.0009 29.9594C64.0381 29.9594 62.6606 28.6078 62.6606 26.7138C62.6606 24.8198 64.0381 23.4639 66.0009 23.4639C66.4378 23.4398 66.8749 23.5068 67.2846 23.6605C67.6942 23.8142 68.0675 24.0514 68.3807 24.3569C68.6939 24.6624 68.9402 25.0297 69.1041 25.4354C69.2679 25.8411 69.3458 26.2764 69.3326 26.7138ZM64.4125 26.7138C64.4384 27.0209 64.5531 27.3139 64.7427 27.5569C64.9322 27.8 65.1883 27.9827 65.4798 28.0827C65.7714 28.1827 66.0857 28.1958 66.3846 28.1203C66.6834 28.0447 66.9538 27.8839 67.1628 27.6573C67.3717 27.4308 67.5103 27.1483 67.5615 26.8444C67.6128 26.5405 67.5745 26.2282 67.4513 25.9456C67.3281 25.6631 67.1254 25.4225 66.8679 25.2531C66.6104 25.0838 66.3091 24.9931 66.0009 24.992C65.7802 24.9899 65.5615 25.0341 65.359 25.1216C65.1564 25.2092 64.9744 25.3383 64.8247 25.5005C64.6751 25.6627 64.5611 25.8545 64.4901 26.0635C64.4191 26.2724 64.3927 26.494 64.4125 26.7138Z" fill="white"/>
<path d="M76.8267 26.7138C76.8385 27.1503 76.76 27.5844 76.5959 27.989C76.4318 28.3936 76.1857 28.7598 75.8732 29.0647C75.5606 29.3696 75.1884 29.6064 74.7799 29.7604C74.3713 29.9144 73.9353 29.9821 73.4993 29.9594C71.5364 29.9594 70.159 28.6078 70.159 26.7138C70.159 24.8199 71.5364 23.4639 73.4993 23.4639C73.9358 23.4405 74.3725 23.5079 74.7816 23.6619C75.1908 23.8159 75.5635 24.0532 75.8762 24.3586C76.189 24.6641 76.4349 25.0311 76.5985 25.4365C76.7621 25.8419 76.8398 26.2769 76.8267 26.7138ZM71.9066 26.7138C71.9325 27.0208 72.0471 27.3136 72.2364 27.5566C72.4258 27.7995 72.6816 27.9823 72.9729 28.0824C73.2642 28.1826 73.5784 28.1959 73.8771 28.1207C74.1758 28.0455 74.4462 27.885 74.6554 27.6589C74.8646 27.4328 75.0035 27.1507 75.0552 26.8471C75.1069 26.5434 75.0692 26.2312 74.9467 25.9486C74.8242 25.666 74.6221 25.4251 74.3651 25.2552C74.1082 25.0854 73.8073 24.994 73.4993 24.992C73.2782 24.9893 73.0591 25.0331 72.856 25.1204C72.6529 25.2077 72.4704 25.3366 72.3203 25.4989C72.1702 25.6612 72.0558 25.8532 71.9845 26.0625C71.9133 26.2718 71.8867 26.4937 71.9066 26.7138Z" fill="white"/>
<path d="M81.8629 29.7485C81.4762 29.909 81.0586 29.9811 80.6405 29.9595C79.1296 29.9595 78.3203 29.1416 78.3203 27.5619V25.0696H77.2829V23.5974H78.372L78.5915 21.8455H80.055V23.5974H81.8414V25.0696H80.055V27.4973C80.0381 27.6172 80.0482 27.7394 80.0845 27.855C80.1208 27.9705 80.1824 28.0765 80.2649 28.1652C80.3474 28.2539 80.4487 28.3231 80.5613 28.3676C80.6739 28.4122 80.7951 28.431 80.9159 28.4228C81.0767 28.4289 81.2369 28.4001 81.3855 28.3384C81.5341 28.2767 81.6676 28.1836 81.7768 28.0655H81.8457L81.8629 29.7485Z" fill="white"/>
<path d="M87.928 21.6604C87.9314 21.874 87.8712 22.0837 87.7551 22.2629C87.6389 22.4421 87.4721 22.5827 87.2758 22.6668C87.0795 22.7509 86.8626 22.7747 86.6527 22.7351C86.4428 22.6956 86.2495 22.5945 86.0972 22.4447C85.945 22.2949 85.8408 22.1032 85.7979 21.894C85.7549 21.6848 85.7752 21.4675 85.8561 21.2699C85.937 21.0722 86.0749 20.9031 86.2523 20.7841C86.4296 20.6651 86.6383 20.6015 86.8519 20.6015C86.9935 20.5949 87.1349 20.6177 87.2673 20.6683C87.3997 20.719 87.5202 20.7964 87.6213 20.8959C87.7223 20.9953 87.8017 21.1145 87.8545 21.2461C87.9073 21.3777 87.9323 21.5187 87.928 21.6604ZM85.9781 23.5974H87.6999V29.8303H85.9781V23.5974Z" fill="white"/>
<path d="M95.1596 26.1155V29.8174H93.4378V26.3307C93.4378 25.4698 93.0073 24.9877 92.2842 24.9877C91.4749 24.9877 90.9928 25.5344 90.9928 26.5029V29.8174H89.271V23.5974H90.7216L90.7862 24.4884H90.812C91.0108 24.1552 91.2975 23.8833 91.6408 23.7026C91.984 23.5218 92.3705 23.4393 92.7577 23.464C94.2858 23.464 95.1854 24.4454 95.1854 26.1284" fill="white"/>
<path d="M103.485 29.7485C103.099 29.9095 102.683 29.9816 102.266 29.9595C100.755 29.9595 99.9462 29.1416 99.9462 27.5619V25.0696H98.9131V23.5974H99.9978L100.226 21.8455H101.681V23.5974H103.476V25.0696H101.681V27.4973C101.664 27.6172 101.674 27.7394 101.71 27.855C101.747 27.9705 101.808 28.0765 101.891 28.1652C101.973 28.2539 102.075 28.323 102.187 28.3676C102.3 28.4122 102.421 28.431 102.542 28.4228C102.703 28.4289 102.863 28.4001 103.011 28.3384C103.16 28.2767 103.293 28.1836 103.403 28.0655H103.467L103.485 29.7485Z" fill="white"/>
<path d="M110.6 26.1156V29.8174H108.878V26.3308C108.878 25.4699 108.448 24.9878 107.724 24.9878C106.915 24.9878 106.433 25.5345 106.433 26.503V29.8174H104.711V20.5498H106.433V24.1699H106.459C106.675 23.9309 106.942 23.7434 107.24 23.6212C107.538 23.4991 107.859 23.4453 108.181 23.464C109.704 23.464 110.604 24.4454 110.604 26.1285" fill="white"/>
<path d="M113.411 27.1486C113.596 28.0095 114.366 28.4658 115.438 28.4658C116.226 28.4997 116.997 28.2283 117.59 27.7082H117.659V29.374C116.96 29.797 116.151 30.0009 115.335 29.9594C113.135 29.9594 111.637 28.6336 111.637 26.7138C111.619 26.2822 111.69 25.8514 111.847 25.4489C112.004 25.0463 112.243 24.6807 112.548 24.3752C112.854 24.0697 113.22 23.831 113.622 23.6741C114.025 23.5172 114.455 23.4457 114.887 23.4639C116.82 23.4639 118.029 24.6176 118.029 26.447V27.1486H113.411ZM113.411 26.1026H116.484C116.368 25.345 115.782 24.9619 114.96 24.9619C114.61 24.9423 114.263 25.0455 113.98 25.2537C113.698 25.4618 113.496 25.762 113.411 26.1026Z" fill="white"/>
<path d="M126.94 29.8303L126.884 28.9953H126.858C126.63 29.315 126.324 29.5713 125.969 29.74C125.614 29.9088 125.223 29.9843 124.83 29.9595C123.07 29.9595 121.783 28.595 121.783 26.7139C121.783 24.8328 123.074 23.464 124.83 23.464C125.158 23.4482 125.486 23.4988 125.793 23.6127C126.101 23.7266 126.383 23.9015 126.621 24.1269H126.651V20.5498H128.373V29.8303H126.94ZM126.703 26.7139C126.677 26.4064 126.562 26.1131 126.372 25.8699C126.182 25.6266 125.926 25.444 125.634 25.3442C125.342 25.2445 125.027 25.232 124.728 25.3082C124.429 25.3844 124.158 25.5461 123.95 25.7735C123.741 26.0009 123.603 26.2841 123.553 26.5886C123.503 26.893 123.542 27.2056 123.667 27.4879C123.791 27.7703 123.995 28.0103 124.254 28.1786C124.513 28.347 124.815 28.4363 125.123 28.4357C125.343 28.4359 125.56 28.3904 125.762 28.3021C125.963 28.2137 126.144 28.0845 126.292 27.9225C126.441 27.7606 126.554 27.5695 126.625 27.3614C126.695 27.1534 126.722 26.9328 126.703 26.7139Z" fill="white"/>
<path d="M136.229 26.7138C136.241 27.1504 136.163 27.5849 135.999 27.9897C135.835 28.3946 135.589 28.7611 135.277 29.0661C134.964 29.3711 134.592 29.608 134.183 29.7617C133.774 29.9155 133.338 29.9828 132.901 29.9594C130.939 29.9594 129.561 28.6078 129.561 26.7138C129.561 24.8198 130.939 23.4639 132.901 23.4639C133.338 23.4398 133.775 23.5068 134.184 23.6606C134.594 23.8143 134.967 24.0515 135.28 24.3571C135.593 24.6627 135.839 25.03 136.002 25.4357C136.165 25.8414 136.243 26.2767 136.229 26.7138ZM131.313 26.7138C131.339 27.0209 131.454 27.3139 131.643 27.557C131.833 27.8 132.089 27.9827 132.38 28.0827C132.672 28.1827 132.986 28.1958 133.285 28.1203C133.584 28.0447 133.854 27.8839 134.063 27.6573C134.272 27.4308 134.411 27.1483 134.462 26.8444C134.513 26.5405 134.475 26.2282 134.352 25.9456C134.229 25.6631 134.026 25.4225 133.768 25.2531C133.511 25.0838 133.21 24.9931 132.901 24.992C132.681 24.9892 132.462 25.033 132.259 25.1203C132.056 25.2077 131.873 25.3367 131.724 25.4991C131.574 25.6614 131.46 25.8535 131.389 26.0628C131.318 26.272 131.293 26.4938 131.313 26.7138Z" fill="white"/>
<path d="M143.719 26.7138C143.731 27.1506 143.652 27.5852 143.488 27.9901C143.323 28.3949 143.077 28.7614 142.764 29.0663C142.451 29.3712 142.078 29.608 141.669 29.7617C141.26 29.9154 140.823 29.9827 140.387 29.9594C138.428 29.9594 137.047 28.6078 137.047 26.7138C137.047 24.8198 138.428 23.4639 140.387 23.4639C140.824 23.4398 141.261 23.5068 141.671 23.6605C142.08 23.8142 142.454 24.0514 142.767 24.3569C143.08 24.6624 143.326 25.0297 143.49 25.4354C143.654 25.8411 143.732 26.2764 143.719 26.7138ZM138.799 26.7138C138.824 27.0209 138.939 27.3139 139.129 27.5569C139.318 27.8 139.574 27.9827 139.866 28.0827C140.157 28.1827 140.472 28.1958 140.771 28.1203C141.069 28.0447 141.34 27.8839 141.549 27.6573C141.758 27.4308 141.896 27.1483 141.948 26.8444C141.999 26.5405 141.961 26.2282 141.837 25.9456C141.714 25.6631 141.512 25.4225 141.254 25.2531C140.996 25.0838 140.695 24.9931 140.387 24.992C140.166 24.9899 139.948 25.0341 139.745 25.1216C139.542 25.2092 139.36 25.3383 139.211 25.5005C139.061 25.6627 138.947 25.8545 138.876 26.0635C138.805 26.2724 138.779 26.494 138.799 26.7138Z" fill="white"/>
<path d="M149.215 23.705V25.401H149.151C148.862 25.2046 148.519 25.1024 148.169 25.1083C147.111 25.1083 146.628 25.7582 146.628 27.1529V29.8303H144.907V23.5974H146.353L146.43 24.5659H146.456C146.615 24.2137 146.878 23.9188 147.21 23.7216C147.542 23.5244 147.926 23.4345 148.311 23.464C148.635 23.4457 148.956 23.53 149.228 23.705" fill="white"/>
</svg>
