<svg width="36" height="36" viewBox="0 0 36 36" fill="none" xmlns="http://www.w3.org/2000/svg">
<path d="M29.8641 36H2.13587C1.56939 36 1.02613 35.775 0.625575 35.3744C0.225017 34.9738 0 34.4306 0 33.8641V6.1359C0 5.56942 0.225017 5.02615 0.625575 4.62559C1.02613 4.22503 1.56939 4 2.13587 4H29.8641C30.4305 4 30.9738 4.22503 31.3744 4.62559C31.7749 5.02615 31.9999 5.56942 31.9999 6.1359V33.8641C31.9999 34.4306 31.7749 34.9738 31.3744 35.3744C30.9738 35.775 30.4305 36 29.8641 36Z" fill="#FC821F"/>
<path d="M17.6693 28.6062V17.7824C17.6684 17.6282 17.6223 17.4778 17.5368 17.3495C17.4513 17.2213 17.3301 17.1209 17.1882 17.0608L12.3439 14.9441C12.2678 14.9093 12.2057 14.8497 12.1678 14.7751C12.1298 14.7005 12.1183 14.6152 12.1351 14.5332C12.1518 14.4511 12.1958 14.3772 12.26 14.3234C12.3241 14.2696 12.4046 14.2392 12.4883 14.237H19.7042C19.8722 14.2382 20.033 14.3055 20.1518 14.4243C20.2706 14.5431 20.3379 14.7039 20.3391 14.872V27.9038C20.3373 28.0493 20.3766 28.1923 20.4523 28.3165C20.528 28.4407 20.6372 28.5411 20.7673 28.6062H17.6693Z" fill="#FC821F"/>
<path d="M26.9248 12.3896V27.1533C26.9248 27.3555 26.885 27.5557 26.8076 27.7424C26.7302 27.9292 26.6169 28.0989 26.4739 28.2418C26.331 28.3848 26.1613 28.4982 25.9745 28.5755C25.7877 28.6529 25.5875 28.6927 25.3854 28.6927H21.128C21.0009 28.6898 20.876 28.6585 20.7624 28.6013C20.6327 28.5358 20.5238 28.4353 20.4481 28.3112C20.3725 28.1871 20.333 28.0443 20.3343 27.8989V14.8671C20.3343 14.7833 20.3178 14.7003 20.2855 14.623C20.2533 14.5456 20.2061 14.4754 20.1466 14.4164C20.0871 14.3573 20.0166 14.3107 19.939 14.279C19.8614 14.2474 19.7783 14.2315 19.6945 14.2321H12.4786C12.3945 14.2333 12.3134 14.263 12.2484 14.3164C12.1835 14.3698 12.1386 14.4437 12.1213 14.526C12.1039 14.6083 12.1151 14.694 12.1529 14.7691C12.1908 14.8442 12.2531 14.9042 12.3295 14.9392L17.1786 17.0559C17.3201 17.1166 17.441 17.2171 17.5264 17.3452C17.6118 17.4733 17.6581 17.6235 17.6596 17.7775V31.2471C17.6597 31.3497 17.634 31.4507 17.5851 31.5409C17.5362 31.6311 17.4655 31.7077 17.3795 31.7636C17.2934 31.8195 17.1948 31.853 17.0925 31.8611C16.9902 31.8692 16.8875 31.8516 16.7937 31.8099L9.65963 28.6927H6.44138C6.08625 28.6914 5.74607 28.5495 5.49541 28.2979C5.24474 28.0463 5.10402 27.7057 5.10402 27.3506V12.1876C5.10529 11.8333 5.24658 11.4939 5.49711 11.2434C5.74764 10.9928 6.08708 10.8515 6.44138 10.8502H25.3902C25.7985 10.8502 26.1901 11.0124 26.4788 11.3011C26.7674 11.5898 26.9296 11.9814 26.9296 12.3896" fill="white"/>
<rect x="10" width="26" height="13" rx="2" fill="#1D8A8B"/>
<path d="M15.085 7.23584H13.4414L13.4326 6.27783H14.7905C15.0308 6.27783 15.2256 6.24854 15.375 6.18994C15.5273 6.13135 15.6387 6.04639 15.709 5.93506C15.7793 5.8208 15.8145 5.68018 15.8145 5.51318C15.8145 5.32275 15.7793 5.16895 15.709 5.05176C15.6387 4.93457 15.5273 4.84961 15.375 4.79688C15.2256 4.74121 15.0322 4.71338 14.7949 4.71338H13.96V10H12.5273V3.60156H14.7949C15.1787 3.60156 15.5215 3.63672 15.8232 3.70703C16.125 3.77734 16.3813 3.88574 16.5923 4.03223C16.8062 4.17871 16.9688 4.36182 17.0801 4.58154C17.1914 4.80127 17.2471 5.06055 17.2471 5.35938C17.2471 5.62012 17.1885 5.86328 17.0713 6.08887C16.957 6.31445 16.7725 6.49756 16.5176 6.63818C16.2627 6.77881 15.9214 6.85498 15.4937 6.8667L15.085 7.23584ZM15.0278 10H13.0767L13.5952 8.89258H15.0278C15.2476 8.89258 15.4263 8.85742 15.564 8.78711C15.7017 8.7168 15.8027 8.62158 15.8672 8.50146C15.9316 8.38135 15.9639 8.24658 15.9639 8.09717C15.9639 7.92139 15.9331 7.76904 15.8716 7.64014C15.813 7.51123 15.7192 7.41162 15.5903 7.34131C15.4644 7.271 15.2959 7.23584 15.085 7.23584H13.8018L13.8105 6.27783H15.3794L15.7134 6.65576C16.1206 6.64697 16.4458 6.71289 16.689 6.85352C16.9351 6.99121 17.1123 7.17285 17.2207 7.39844C17.3291 7.62402 17.3833 7.86279 17.3833 8.11475C17.3833 8.53076 17.2939 8.87939 17.1152 9.16064C16.9365 9.43896 16.6714 9.64844 16.3198 9.78906C15.9712 9.92969 15.5405 10 15.0278 10ZM22.6611 8.89258V10H19.2554V8.89258H22.6611ZM19.7432 3.60156V10H18.3105V3.60156H19.7432ZM22.2217 6.17676V7.24902H19.2554V6.17676H22.2217ZM22.6655 3.60156V4.71338H19.2554V3.60156H22.6655ZM26.4316 3.60156V10H25.0034V3.60156H26.4316ZM28.3784 3.60156V4.71338H23.0962V3.60156H28.3784ZM31.2437 4.81885L29.5913 10H28.062L30.4307 3.60156H31.3975L31.2437 4.81885ZM32.6147 10L30.958 4.81885L30.7866 3.60156H31.7666L34.144 10H32.6147ZM32.5444 7.61816V8.72559H29.209V7.61816H32.5444Z" fill="white"/>
</svg>
