<svg width="32" height="32" viewBox="0 0 32 32" fill="none" xmlns="http://www.w3.org/2000/svg">
<path d="M29.8641 32H2.13587C1.56939 32 1.02613 31.775 0.625575 31.3744C0.225017 30.9738 0 30.4306 0 29.8641V2.1359C0 1.56942 0.225017 1.02615 0.625575 0.62559C1.02613 0.225031 1.56939 0 2.13587 0H29.8641C30.4305 0 30.9738 0.225031 31.3744 0.62559C31.7749 1.02615 31.9999 1.56942 31.9999 2.1359V29.8641C31.9999 30.4306 31.7749 30.9738 31.3744 31.3744C30.9738 31.775 30.4305 32 29.8641 32Z" fill="#FC821F"/>
<path d="M17.6693 24.6062V13.7824C17.6684 13.6282 17.6223 13.4778 17.5368 13.3495C17.4513 13.2213 17.3301 13.1209 17.1882 13.0608L12.3439 10.9441C12.2678 10.9093 12.2057 10.8497 12.1678 10.7751C12.1298 10.7005 12.1183 10.6152 12.1351 10.5332C12.1518 10.4511 12.1958 10.3772 12.26 10.3234C12.3241 10.2696 12.4046 10.2392 12.4883 10.237H19.7042C19.8722 10.2382 20.033 10.3055 20.1518 10.4243C20.2706 10.5431 20.3379 10.7039 20.3391 10.872V23.9038C20.3373 24.0493 20.3766 24.1923 20.4523 24.3165C20.528 24.4407 20.6372 24.5411 20.7673 24.6062H17.6693Z" fill="#FC821F"/>
<path d="M26.9248 8.38963V23.1533C26.9248 23.3555 26.885 23.5557 26.8076 23.7424C26.7302 23.9292 26.6169 24.0989 26.4739 24.2418C26.331 24.3848 26.1613 24.4982 25.9745 24.5755C25.7877 24.6529 25.5875 24.6927 25.3854 24.6927H21.128C21.0009 24.6898 20.876 24.6585 20.7624 24.6013C20.6327 24.5358 20.5238 24.4353 20.4481 24.3112C20.3725 24.1871 20.333 24.0443 20.3343 23.8989V10.8671C20.3343 10.7833 20.3178 10.7003 20.2855 10.623C20.2533 10.5456 20.2061 10.4754 20.1466 10.4164C20.0871 10.3573 20.0166 10.3107 19.939 10.279C19.8614 10.2474 19.7783 10.2315 19.6945 10.2321H12.4786C12.3945 10.2333 12.3134 10.263 12.2484 10.3164C12.1835 10.3698 12.1386 10.4437 12.1213 10.526C12.1039 10.6083 12.1151 10.694 12.1529 10.7691C12.1908 10.8442 12.2531 10.9042 12.3295 10.9392L17.1786 13.0559C17.3201 13.1166 17.441 13.2171 17.5264 13.3452C17.6118 13.4733 17.6581 13.6235 17.6596 13.7775V27.2471C17.6597 27.3497 17.634 27.4507 17.5851 27.5409C17.5362 27.6311 17.4655 27.7077 17.3795 27.7636C17.2934 27.8195 17.1948 27.853 17.0925 27.8611C16.9902 27.8692 16.8875 27.8516 16.7937 27.8099L9.65963 24.6927H6.44138C6.08625 24.6914 5.74607 24.5495 5.49541 24.2979C5.24474 24.0463 5.10402 23.7057 5.10402 23.3506V8.18759C5.10529 7.8333 5.24658 7.49389 5.49711 7.24336C5.74764 6.99283 6.08708 6.85151 6.44138 6.85024H25.3902C25.7985 6.85024 26.1901 7.01242 26.4788 7.30111C26.7674 7.5898 26.9296 7.98136 26.9296 8.38963" fill="white"/>
</svg>
