<svg width="158" height="47" viewBox="0 0 158 47" fill="none" xmlns="http://www.w3.org/2000/svg">
<path d="M154.321 5.77653V37.2941C154.319 37.6607 154.246 38.0235 154.104 38.3616C153.962 38.6996 153.755 39.0063 153.494 39.2639C153.233 39.5216 152.924 39.7251 152.584 39.8628C152.244 40.0004 151.881 40.0696 151.514 40.0662H33.2867C33.1784 40.0719 33.0699 40.0632 32.9639 40.0403C32.5917 39.9664 32.2567 39.7654 32.0164 39.4717C31.7761 39.178 31.6454 38.8099 31.6467 38.4305V11.3552C31.649 11.0035 31.5124 10.6651 31.2665 10.4136C31.0207 10.1621 30.6855 10.0178 30.3338 10.0122H15.3412C15.1657 10.019 14.9976 10.0851 14.8643 10.1995C14.731 10.3139 14.6403 10.4701 14.6069 10.6425C14.5735 10.815 14.5993 10.9937 14.6803 11.1497C14.7613 11.3056 14.8926 11.4296 15.0528 11.5015L24.5658 15.651C25.0201 15.8491 25.4062 16.1762 25.6763 16.5917C25.9464 17.0072 26.0886 17.4928 26.0853 17.9884V45.3392C26.0895 45.552 26.0395 45.7624 25.9401 45.9507C25.8407 46.139 25.6951 46.2989 25.517 46.4155C25.3389 46.5321 25.1341 46.6015 24.9217 46.6173C24.7094 46.6331 24.4966 46.5947 24.3032 46.5057L9.457 40.049H2.77641C2.41201 40.0495 2.05108 39.9782 1.71426 39.8392C1.37744 39.7001 1.07132 39.496 0.813452 39.2386C0.555582 38.9811 0.350995 38.6753 0.211415 38.3387C0.0718354 38.0021 -4.39313e-07 37.6413 0 37.2769V5.77653C0 5.04018 0.292512 4.33399 0.813189 3.81331C1.33387 3.29263 2.04006 3.00012 2.77641 3.00012H151.514C151.881 2.99671 152.245 3.06598 152.585 3.20393C152.925 3.34188 153.235 3.54578 153.496 3.80388C153.756 4.06197 153.964 4.36915 154.105 4.70772C154.247 5.04629 154.32 5.40954 154.321 5.77653Z" fill="#FC821F"/>
<rect x="118" width="40" height="18" rx="2" fill="#1D8A8B"/>
<path d="M125.819 9.76855H123.256L123.242 8.19629H125.32C125.694 8.19629 125.993 8.15527 126.216 8.07324C126.439 7.98665 126.601 7.86133 126.701 7.69727C126.806 7.5332 126.858 7.32812 126.858 7.08203C126.858 6.79948 126.806 6.57161 126.701 6.39844C126.596 6.22526 126.43 6.09993 126.202 6.02246C125.979 5.94043 125.689 5.89941 125.334 5.89941H124.158V14H121.759V4.04688H125.334C125.949 4.04688 126.498 4.10384 126.981 4.21777C127.465 4.32715 127.875 4.49577 128.212 4.72363C128.554 4.9515 128.813 5.23861 128.991 5.58496C129.169 5.92676 129.258 6.33008 129.258 6.79492C129.258 7.20052 129.171 7.58105 128.998 7.93652C128.825 8.29199 128.535 8.58138 128.13 8.80469C127.729 9.02344 127.18 9.13737 126.482 9.14648L125.819 9.76855ZM125.724 14H122.675L123.495 12.1543H125.724C126.052 12.1543 126.314 12.1042 126.51 12.0039C126.71 11.8991 126.854 11.7624 126.94 11.5938C127.032 11.4206 127.077 11.2292 127.077 11.0195C127.077 10.7643 127.034 10.5433 126.947 10.3564C126.865 10.1696 126.733 10.026 126.551 9.92578C126.368 9.82096 126.125 9.76855 125.819 9.76855H123.803L123.816 8.19629H126.229L126.79 8.8252C127.455 8.79785 127.982 8.89128 128.369 9.10547C128.761 9.31966 129.041 9.60221 129.21 9.95312C129.379 10.304 129.463 10.6709 129.463 11.0537C129.463 11.7054 129.322 12.25 129.039 12.6875C128.761 13.125 128.344 13.4531 127.788 13.6719C127.232 13.8906 126.544 14 125.724 14ZM137.646 12.1543V14H132.341V12.1543H137.646ZM133.195 4.04688V14H130.796V4.04688H133.195ZM136.962 7.99805V9.78223H132.341V7.99805H136.962ZM137.666 4.04688V5.89941H132.341V4.04688H137.666ZM143.586 4.04688V14H141.187V4.04688H143.586ZM146.58 4.04688V5.89941H138.261V4.04688H146.58ZM150.982 6.13867L148.556 14H145.979L149.636 4.04688H151.27L150.982 6.13867ZM152.992 14L150.559 6.13867L150.244 4.04688H151.898L155.576 14H152.992ZM152.896 10.2881V12.1406H147.79V10.2881H152.896Z" fill="white"/>
<path d="M26.0982 40.0232V17.9884C26.1021 17.4927 25.9601 17.0068 25.69 16.5912C25.4198 16.1756 25.0333 15.8487 24.5787 15.6511L15.0528 11.5015C14.8923 11.4294 14.7609 11.3051 14.68 11.1487C14.5992 10.9924 14.5737 10.8133 14.6076 10.6406C14.6415 10.4679 14.733 10.3118 14.867 10.1977C15.001 10.0836 15.1697 10.0182 15.3455 10.0122H30.3338C30.6858 10.0167 31.0217 10.1606 31.2678 10.4124C31.5139 10.6641 31.6501 11.0032 31.6467 11.3552V38.4133C31.6446 38.793 31.775 39.1615 32.0154 39.4554C32.2559 39.7492 32.5913 39.95 32.9639 40.0232H26.0982Z" fill="white"/>
<path d="M52.4288 32.8303L52.3729 31.9952H52.3513C52.1219 32.3147 51.8152 32.5707 51.4599 32.7394C51.1045 32.908 50.7122 32.9837 50.3196 32.9594C48.5591 32.9594 47.272 31.5949 47.272 29.7138C47.272 27.8328 48.5634 26.4639 50.3196 26.4639C50.7084 26.4378 51.0973 26.5106 51.4503 26.6754C51.8034 26.8403 52.1089 27.0918 52.3384 27.4066H52.3643L52.4288 26.5974H53.8751V32.8303H52.4288ZM52.1921 29.7138C52.1661 29.4063 52.0512 29.113 51.8613 28.8698C51.6714 28.6266 51.4148 28.4439 51.1228 28.3442C50.8307 28.2444 50.516 28.2319 50.217 28.3081C49.9179 28.3844 49.6476 28.546 49.4389 28.7734C49.2303 29.0008 49.0924 29.284 49.0422 29.5885C48.9919 29.893 49.0314 30.2055 49.1559 30.4879C49.2803 30.7703 49.4844 31.0103 49.743 31.1786C50.0017 31.3469 50.3037 31.4362 50.6123 31.4356C50.8323 31.4365 51.05 31.3915 51.2516 31.3033C51.4531 31.2152 51.6341 31.086 51.7828 30.9239C51.9315 30.7618 52.0447 30.5705 52.1152 30.3621C52.1857 30.1537 52.2119 29.9329 52.1921 29.7138Z" fill="white"/>
<path d="M62.4454 23.6273V25.2415H62.3808C62.0901 25.0617 61.754 24.9691 61.4123 24.9746C61.2876 24.9676 61.163 24.9879 61.0469 25.0339C60.9309 25.0799 60.8262 25.1506 60.7402 25.2411C60.6542 25.3316 60.589 25.4397 60.5489 25.558C60.5089 25.6762 60.495 25.8018 60.5083 25.9259V26.6189H62.299V28.0953H60.5083V32.8303H58.7865V28.0953H57.7104V26.6189H58.7435V25.8785C58.7435 24.3117 59.5785 23.4379 61.1196 23.4379C61.5598 23.4214 61.9988 23.4931 62.4109 23.6488" fill="white"/>
<path d="M69.3326 29.7138C69.3445 30.1506 69.2658 30.5852 69.1014 30.99C68.9371 31.3949 68.6906 31.7614 68.3776 32.0663C68.0646 32.3712 67.6918 32.608 67.2828 32.7617C66.8737 32.9154 66.4373 32.9827 66.0009 32.9594C64.0381 32.9594 62.6606 31.6078 62.6606 29.7138C62.6606 27.8198 64.0381 26.4639 66.0009 26.4639C66.4378 26.4398 66.8749 26.5068 67.2846 26.6605C67.6942 26.8142 68.0675 27.0514 68.3807 27.3569C68.6939 27.6624 68.9402 28.0297 69.1041 28.4354C69.2679 28.8411 69.3458 29.2764 69.3326 29.7138ZM64.4125 29.7138C64.4384 30.0209 64.5531 30.3139 64.7427 30.5569C64.9322 30.8 65.1883 30.9827 65.4798 31.0827C65.7714 31.1827 66.0857 31.1958 66.3846 31.1203C66.6834 31.0447 66.9538 30.8839 67.1628 30.6573C67.3717 30.4308 67.5103 30.1483 67.5615 29.8444C67.6128 29.5404 67.5745 29.2282 67.4513 28.9456C67.3281 28.6631 67.1254 28.4225 66.8679 28.2531C66.6104 28.0838 66.3091 27.9931 66.0009 27.992C65.7802 27.9899 65.5615 28.034 65.359 28.1216C65.1564 28.2092 64.9744 28.3383 64.8247 28.5005C64.6751 28.6627 64.5611 28.8545 64.4901 29.0635C64.4191 29.2724 64.3927 29.494 64.4125 29.7138Z" fill="white"/>
<path d="M76.8267 29.7138C76.8385 30.1503 76.76 30.5844 76.5959 30.989C76.4318 31.3936 76.1857 31.7598 75.8732 32.0647C75.5606 32.3696 75.1884 32.6064 74.7799 32.7604C74.3713 32.9144 73.9353 32.9821 73.4993 32.9594C71.5364 32.9594 70.159 31.6078 70.159 29.7138C70.159 27.8199 71.5364 26.4639 73.4993 26.4639C73.9358 26.4405 74.3725 26.5079 74.7816 26.6619C75.1908 26.8159 75.5635 27.0532 75.8762 27.3586C76.189 27.6641 76.4349 28.0311 76.5985 28.4365C76.7621 28.8419 76.8398 29.2769 76.8267 29.7138ZM71.9066 29.7138C71.9325 30.0208 72.0471 30.3136 72.2364 30.5566C72.4258 30.7995 72.6816 30.9823 72.9729 31.0824C73.2642 31.1826 73.5784 31.1959 73.8771 31.1207C74.1758 31.0455 74.4462 30.885 74.6554 30.6589C74.8646 30.4328 75.0035 30.1507 75.0552 29.8471C75.1069 29.5434 75.0692 29.2312 74.9467 28.9486C74.8242 28.666 74.6221 28.4251 74.3651 28.2552C74.1082 28.0854 73.8073 27.994 73.4993 27.992C73.2782 27.9893 73.0591 28.0331 72.856 28.1204C72.6529 28.2077 72.4704 28.3366 72.3203 28.4989C72.1702 28.6612 72.0558 28.8532 71.9845 29.0625C71.9133 29.2718 71.8867 29.4937 71.9066 29.7138Z" fill="white"/>
<path d="M81.8629 32.7485C81.4762 32.909 81.0586 32.9811 80.6405 32.9595C79.1296 32.9595 78.3203 32.1416 78.3203 30.5619V28.0696H77.2829V26.5974H78.372L78.5915 24.8455H80.055V26.5974H81.8414V28.0696H80.055V30.4973C80.0381 30.6172 80.0482 30.7394 80.0845 30.855C80.1208 30.9705 80.1824 31.0765 80.2649 31.1652C80.3474 31.2539 80.4487 31.3231 80.5613 31.3676C80.6739 31.4122 80.7951 31.431 80.9159 31.4228C81.0767 31.4289 81.2369 31.4001 81.3855 31.3384C81.5341 31.2767 81.6676 31.1836 81.7768 31.0655H81.8457L81.8629 32.7485Z" fill="white"/>
<path d="M87.928 24.6604C87.9314 24.874 87.8712 25.0837 87.7551 25.2629C87.6389 25.4421 87.4721 25.5827 87.2758 25.6668C87.0795 25.7509 86.8626 25.7747 86.6527 25.7351C86.4428 25.6956 86.2495 25.5945 86.0972 25.4447C85.945 25.2949 85.8408 25.1032 85.7979 24.894C85.7549 24.6848 85.7752 24.4675 85.8561 24.2699C85.937 24.0722 86.0749 23.9031 86.2523 23.7841C86.4296 23.6651 86.6383 23.6015 86.8519 23.6015C86.9935 23.5949 87.1349 23.6177 87.2673 23.6683C87.3997 23.719 87.5202 23.7964 87.6213 23.8959C87.7223 23.9953 87.8017 24.1145 87.8545 24.2461C87.9073 24.3777 87.9323 24.5187 87.928 24.6604ZM85.9781 26.5974H87.6999V32.8303H85.9781V26.5974Z" fill="white"/>
<path d="M95.1596 29.1155V32.8174H93.4378V29.3307C93.4378 28.4698 93.0073 27.9877 92.2842 27.9877C91.4749 27.9877 90.9928 28.5344 90.9928 29.5029V32.8174H89.271V26.5974H90.7216L90.7862 27.4884H90.812C91.0108 27.1552 91.2975 26.8833 91.6408 26.7026C91.984 26.5218 92.3705 26.4393 92.7577 26.464C94.2858 26.464 95.1854 27.4454 95.1854 29.1284" fill="white"/>
<path d="M103.485 32.7485C103.099 32.9095 102.683 32.9816 102.266 32.9595C100.755 32.9595 99.9462 32.1416 99.9462 30.5619V28.0696H98.9131V26.5974H99.9978L100.226 24.8455H101.681V26.5974H103.476V28.0696H101.681V30.4973C101.664 30.6172 101.674 30.7394 101.71 30.855C101.747 30.9705 101.808 31.0765 101.891 31.1652C101.973 31.2539 102.075 31.323 102.187 31.3676C102.3 31.4122 102.421 31.431 102.542 31.4228C102.703 31.4289 102.863 31.4001 103.011 31.3384C103.16 31.2767 103.293 31.1836 103.403 31.0655H103.467L103.485 32.7485Z" fill="white"/>
<path d="M110.6 29.1156V32.8174H108.878V29.3308C108.878 28.4699 108.448 27.9878 107.724 27.9878C106.915 27.9878 106.433 28.5345 106.433 29.503V32.8174H104.711V23.5498H106.433V27.1699H106.459C106.675 26.9309 106.942 26.7434 107.24 26.6212C107.538 26.4991 107.859 26.4453 108.181 26.464C109.704 26.464 110.604 27.4454 110.604 29.1285" fill="white"/>
<path d="M113.411 30.1486C113.596 31.0095 114.366 31.4658 115.438 31.4658C116.226 31.4997 116.997 31.2283 117.59 30.7082H117.659V32.374C116.96 32.797 116.151 33.0009 115.335 32.9594C113.135 32.9594 111.637 31.6336 111.637 29.7138C111.619 29.2822 111.69 28.8514 111.847 28.4489C112.004 28.0463 112.243 27.6807 112.548 27.3752C112.854 27.0697 113.22 26.831 113.622 26.6741C114.025 26.5172 114.455 26.4457 114.887 26.4639C116.82 26.4639 118.029 27.6176 118.029 29.447V30.1486H113.411ZM113.411 29.1026H116.484C116.368 28.345 115.782 27.9619 114.96 27.9619C114.61 27.9423 114.263 28.0455 113.98 28.2537C113.698 28.4618 113.496 28.762 113.411 29.1026Z" fill="white"/>
<path d="M126.94 32.8303L126.884 31.9953H126.858C126.63 32.315 126.324 32.5713 125.969 32.74C125.614 32.9088 125.223 32.9843 124.83 32.9595C123.07 32.9595 121.783 31.595 121.783 29.7139C121.783 27.8328 123.074 26.464 124.83 26.464C125.158 26.4482 125.486 26.4988 125.793 26.6127C126.101 26.7266 126.383 26.9015 126.621 27.1269H126.651V23.5498H128.373V32.8303H126.94ZM126.703 29.7139C126.677 29.4064 126.562 29.1131 126.372 28.8699C126.182 28.6266 125.926 28.444 125.634 28.3442C125.342 28.2445 125.027 28.232 124.728 28.3082C124.429 28.3844 124.158 28.5461 123.95 28.7735C123.741 29.0009 123.603 29.2841 123.553 29.5886C123.503 29.893 123.542 30.2056 123.667 30.4879C123.791 30.7703 123.995 31.0103 124.254 31.1786C124.513 31.347 124.815 31.4363 125.123 31.4357C125.343 31.4359 125.56 31.3904 125.762 31.3021C125.963 31.2137 126.144 31.0845 126.292 30.9225C126.441 30.7606 126.554 30.5695 126.625 30.3614C126.695 30.1534 126.722 29.9328 126.703 29.7139Z" fill="white"/>
<path d="M136.229 29.7138C136.241 30.1504 136.163 30.5849 135.999 30.9897C135.835 31.3946 135.589 31.7611 135.277 32.0661C134.964 32.3711 134.592 32.608 134.183 32.7617C133.774 32.9155 133.338 32.9828 132.901 32.9594C130.939 32.9594 129.561 31.6078 129.561 29.7138C129.561 27.8198 130.939 26.4639 132.901 26.4639C133.338 26.4398 133.775 26.5068 134.184 26.6606C134.594 26.8143 134.967 27.0515 135.28 27.3571C135.593 27.6627 135.839 28.03 136.002 28.4357C136.165 28.8414 136.243 29.2767 136.229 29.7138ZM131.313 29.7138C131.339 30.0209 131.454 30.3139 131.643 30.557C131.833 30.8 132.089 30.9827 132.38 31.0827C132.672 31.1827 132.986 31.1958 133.285 31.1203C133.584 31.0447 133.854 30.8839 134.063 30.6573C134.272 30.4308 134.411 30.1483 134.462 29.8444C134.513 29.5405 134.475 29.2282 134.352 28.9456C134.229 28.6631 134.026 28.4225 133.768 28.2531C133.511 28.0838 133.21 27.9931 132.901 27.992C132.681 27.9892 132.462 28.0329 132.259 28.1203C132.056 28.2077 131.873 28.3367 131.724 28.4991C131.574 28.6614 131.46 28.8535 131.389 29.0628C131.318 29.272 131.293 29.4938 131.313 29.7138Z" fill="white"/>
<path d="M143.719 29.7138C143.731 30.1506 143.652 30.5852 143.488 30.99C143.323 31.3949 143.077 31.7614 142.764 32.0663C142.451 32.3712 142.078 32.608 141.669 32.7617C141.26 32.9154 140.823 32.9827 140.387 32.9594C138.428 32.9594 137.047 31.6078 137.047 29.7138C137.047 27.8198 138.428 26.4639 140.387 26.4639C140.824 26.4398 141.261 26.5068 141.671 26.6605C142.08 26.8142 142.454 27.0514 142.767 27.3569C143.08 27.6624 143.326 28.0297 143.49 28.4354C143.654 28.8411 143.732 29.2764 143.719 29.7138ZM138.799 29.7138C138.824 30.0209 138.939 30.3139 139.129 30.5569C139.318 30.8 139.574 30.9827 139.866 31.0827C140.157 31.1827 140.472 31.1958 140.771 31.1203C141.069 31.0447 141.34 30.8839 141.549 30.6573C141.758 30.4308 141.896 30.1483 141.948 29.8444C141.999 29.5404 141.961 29.2282 141.837 28.9456C141.714 28.6631 141.512 28.4225 141.254 28.2531C140.996 28.0838 140.695 27.9931 140.387 27.992C140.166 27.9899 139.948 28.034 139.745 28.1216C139.542 28.2092 139.36 28.3383 139.211 28.5005C139.061 28.6627 138.947 28.8545 138.876 29.0635C138.805 29.2724 138.779 29.494 138.799 29.7138Z" fill="white"/>
<path d="M149.215 26.705V28.401H149.151C148.862 28.2046 148.519 28.1024 148.169 28.1083C147.111 28.1083 146.628 28.7582 146.628 30.1529V32.8303H144.907V26.5974H146.353L146.43 27.5659H146.456C146.615 27.2137 146.878 26.9188 147.21 26.7216C147.542 26.5244 147.926 26.4345 148.311 26.464C148.635 26.4457 148.956 26.53 149.228 26.705" fill="white"/>
</svg>
