<svg width="240" height="70" viewBox="0 0 240 70" fill="none" xmlns="http://www.w3.org/2000/svg">
<path d="M15.411 69.9963C14.7909 69.9963 14.1858 69.9892 13.5705 69.9768C12.296 69.9618 11.0244 69.8621 9.76622 69.6783C8.59305 69.4966 7.45656 69.1587 6.39424 68.6757C5.34166 68.1966 4.38162 67.5685 3.55091 66.8153C2.70817 66.071 2.00655 65.2078 1.47385 64.2598C0.935285 63.3056 0.562566 62.2828 0.368676 61.2271C0.159292 60.0928 0.046007 58.9457 0.029797 57.7959C0.0168932 57.41 0 56.125 0 56.125V13.8517C0 13.8517 0.0179922 12.5864 0.0298988 12.2147C0.0454197 11.0667 0.158046 9.92146 0.366804 8.78885C0.561052 7.73025 0.934059 6.70455 1.47291 5.74726C2.00365 4.79991 2.70138 3.93601 3.53904 3.18905C4.37576 2.435 5.33887 1.80363 6.39324 1.31796C7.45312 0.836467 8.58746 0.500922 9.75826 0.322569C11.0206 0.136948 12.2965 0.0365923 13.5755 0.022344L15.412 0H224.578L226.436 0.0232407C227.704 0.036781 228.968 0.136241 230.219 0.320775C231.402 0.501366 232.548 0.839253 233.62 1.32332C235.732 2.30208 237.451 3.85055 238.535 5.75172C239.065 6.70241 239.432 7.71974 239.624 8.7692C239.836 9.9111 239.954 11.0653 239.978 12.2227C239.984 12.741 239.984 13.2977 239.984 13.8517C240 14.5379 240 15.1911 240 15.8496V54.1484C240 54.8133 240 55.462 239.984 56.116C239.984 56.7111 239.984 57.2563 239.976 57.8173C239.952 58.9541 239.836 60.0877 239.628 61.2092C239.438 62.2725 239.068 63.3032 238.529 64.2652C237.993 65.203 237.295 66.0587 236.462 66.801C235.631 67.5582 234.669 68.1901 233.614 68.6722C232.545 69.1589 231.4 69.4981 230.219 69.6783C228.961 69.863 227.689 69.9628 226.415 69.9768C225.818 69.9892 225.194 69.9963 224.588 69.9963L222.382 70L15.411 69.9963Z" fill="black"/>
<path d="M43.5218 35.5399C43.5414 34.0125 43.9471 32.5149 44.7011 31.1864C45.4551 29.8579 46.5329 28.7418 47.8342 27.9418C47.0075 26.7611 45.917 25.7895 44.6491 25.1041C43.3813 24.4187 41.971 24.0383 40.5305 23.9933C37.4575 23.6707 34.4784 25.8321 32.9125 25.8321C31.3163 25.8321 28.9053 24.0253 26.3091 24.0787C24.6297 24.133 22.9931 24.6213 21.5586 25.4961C20.1242 26.371 18.9408 27.6025 18.1237 29.0706C14.5846 35.1981 17.2245 44.2035 20.6147 49.1565C22.3109 51.5819 24.2933 54.2911 26.8872 54.195C29.4254 54.0897 30.3734 52.5764 33.4374 52.5764C36.4728 52.5764 37.3623 54.195 40.0088 54.1339C42.7325 54.0897 44.4485 51.6978 46.0852 49.2494C47.3039 47.5213 48.2417 45.6113 48.8639 43.5902C47.2815 42.921 45.9311 41.8007 44.9811 40.3691C44.0312 38.9376 43.5236 37.258 43.5218 35.5399Z" fill="white"/>
<path d="M38.523 20.7364C40.0081 18.9536 40.7397 16.6621 40.5625 14.3486C38.2937 14.5869 36.1979 15.6713 34.6928 17.3857C33.9569 18.2232 33.3932 19.1975 33.0341 20.253C32.675 21.3085 32.5274 22.4244 32.5998 23.5369C33.7347 23.5486 34.8573 23.3026 35.8833 22.8175C36.9093 22.3324 37.8119 21.6208 38.523 20.7364Z" fill="white"/>
<path d="M75.6071 48.0501H66.9452L64.865 54.1923H61.1961L69.4006 31.4678H73.2125L81.4169 54.1923H77.6855L75.6071 48.0501ZM67.8423 45.2158H74.7083L71.3236 35.2475H71.2289L67.8423 45.2158Z" fill="white"/>
<path d="M99.1359 45.8988C99.1359 51.0474 96.3802 54.3553 92.2217 54.3553C91.1682 54.4104 90.1206 54.1677 89.1987 53.6551C88.2767 53.1424 87.5178 52.3805 87.0088 51.4566H86.9301V59.6629H83.5293V37.6139H86.8211V40.3696H86.8837C87.4161 39.4501 88.1879 38.6921 89.1168 38.1764C90.0458 37.6606 91.0972 37.4063 92.1591 37.4406C96.3641 37.4406 99.1359 40.7645 99.1359 45.8988ZM95.6404 45.8988C95.6404 42.5445 93.9069 40.3392 91.262 40.3392C88.6636 40.3392 86.9158 42.5909 86.9158 45.8988C86.9158 49.2371 88.6636 51.4727 91.262 51.4727C93.9069 51.4727 95.6404 49.2836 95.6404 45.8988Z" fill="white"/>
<path d="M117.371 45.8988C117.371 51.0474 114.616 54.3553 110.457 54.3553C109.404 54.4104 108.356 54.1677 107.434 53.6551C106.512 53.1424 105.753 52.3805 105.244 51.4566H105.165V59.6629H101.765V37.6139H105.056V40.3696H105.119C105.651 39.4501 106.423 38.6921 107.352 38.1764C108.281 37.6606 109.332 37.4063 110.394 37.4406C114.599 37.4406 117.371 40.7645 117.371 45.8988ZM113.876 45.8988C113.876 42.5445 112.142 40.3392 109.497 40.3392C106.899 40.3392 105.151 42.5909 105.151 45.8988C105.151 49.2371 106.899 51.4727 109.497 51.4727C112.142 51.4727 113.876 49.2835 113.876 45.8988H113.876Z" fill="white"/>
<path d="M129.423 47.8617C129.675 50.1152 131.864 51.5948 134.856 51.5948C137.723 51.5948 139.785 50.1151 139.785 48.0832C139.785 46.3194 138.541 45.2632 135.596 44.5394L132.651 43.8299C128.478 42.822 126.541 40.8705 126.541 37.7038C126.541 33.783 129.958 31.0898 134.81 31.0898C139.611 31.0898 142.903 33.783 143.014 37.7038H139.581C139.376 35.436 137.501 34.0671 134.761 34.0671C132.022 34.0671 130.147 35.4521 130.147 37.4679C130.147 39.0745 131.344 40.0199 134.273 40.7436L136.777 41.3584C141.44 42.461 143.377 44.3339 143.377 47.6578C143.377 51.9093 139.99 54.572 134.604 54.572C129.564 54.572 126.162 51.9718 125.942 47.8615L129.423 47.8617Z" fill="white"/>
<path d="M150.716 33.707V37.6279H153.867V40.321H150.716V49.4548C150.716 50.8737 151.347 51.5349 152.732 51.5349C153.106 51.5284 153.48 51.5022 153.851 51.4563V54.1333C153.228 54.2496 152.595 54.3023 151.962 54.2906C148.608 54.2906 147.3 53.0307 147.3 49.8175V40.321H144.891V37.6279H147.299V33.707H150.716Z" fill="white"/>
<path d="M155.692 45.9134C155.692 40.7005 158.762 37.4248 163.549 37.4248C168.353 37.4248 171.409 40.7005 171.409 45.9134C171.409 51.1406 168.369 54.4021 163.549 54.4021C158.731 54.4021 155.692 51.1406 155.692 45.9134ZM167.944 45.9134C167.944 42.3375 166.305 40.2269 163.549 40.2269C160.794 40.2269 159.157 42.3536 159.157 45.9134C159.157 49.5037 160.794 51.5981 163.549 51.5981C166.305 51.5981 167.944 49.5037 167.944 45.9134H167.944Z" fill="white"/>
<path d="M174.213 37.6138H177.456V40.4337H177.535C177.755 39.553 178.271 38.7747 178.996 38.2295C179.722 37.6844 180.613 37.4057 181.52 37.4404C181.912 37.439 182.303 37.4816 182.686 37.5673V40.7483C182.191 40.5971 181.675 40.5277 181.157 40.5428C180.663 40.5227 180.171 40.6098 179.714 40.7981C179.256 40.9864 178.845 41.2714 178.509 41.6335C178.172 41.9956 177.918 42.4263 177.763 42.896C177.609 43.3657 177.558 43.8633 177.614 44.3546V54.1817H174.213L174.213 37.6138Z" fill="white"/>
<path d="M198.365 49.3303C197.908 52.338 194.979 54.4021 191.231 54.4021C186.411 54.4021 183.42 51.1728 183.42 45.9921C183.42 40.7952 186.427 37.4248 191.088 37.4248C195.672 37.4248 198.555 40.5736 198.555 45.5971V46.7623H186.853V46.9678C186.799 47.5776 186.875 48.1918 187.077 48.7698C187.278 49.3478 187.601 49.8762 188.022 50.3201C188.444 50.7639 188.955 51.113 189.522 51.3442C190.088 51.5753 190.698 51.6832 191.31 51.6607C192.113 51.736 192.92 51.5498 193.609 51.13C194.299 50.7101 194.834 50.0789 195.136 49.3303L198.365 49.3303ZM186.869 44.3855H195.152C195.182 43.8372 195.099 43.2886 194.908 42.774C194.716 42.2594 194.42 41.7899 194.039 41.3951C193.657 41.0002 193.198 40.6885 192.69 40.4795C192.183 40.2705 191.637 40.1687 191.088 40.1805C190.534 40.1772 189.985 40.2836 189.473 40.4936C188.96 40.7035 188.495 41.0129 188.102 41.4039C187.71 41.7948 187.399 42.2596 187.187 42.7713C186.976 43.2831 186.867 43.8317 186.869 44.3855V44.3855Z" fill="white"/>
<path d="M67.4166 14.3835C68.1295 14.3323 68.845 14.44 69.5113 14.6988C70.1776 14.9577 70.7782 15.3611 71.2697 15.8802C71.7612 16.3992 72.1314 17.0208 72.3535 17.7002C72.5757 18.3797 72.6443 19.0999 72.5544 19.8091C72.5544 23.2974 70.669 25.3026 67.4166 25.3026H63.4725V14.3835H67.4166ZM65.1684 23.7584H67.2271C67.7366 23.7889 68.2464 23.7053 68.7196 23.5139C69.1927 23.3225 69.6172 23.0279 69.9621 22.6517C70.307 22.2756 70.5637 21.8272 70.7135 21.3393C70.8634 20.8514 70.9025 20.3362 70.8281 19.8313C70.8971 19.3284 70.854 18.8164 70.7019 18.3321C70.5498 17.8477 70.2924 17.4031 69.9483 17.0299C69.6041 16.6567 69.1817 16.3642 68.7112 16.1735C68.2408 15.9827 67.734 15.8984 67.2271 15.9265H65.1684V23.7584Z" fill="white"/>
<path d="M74.4701 21.1842C74.4183 20.6427 74.4802 20.0963 74.6519 19.5801C74.8237 19.0639 75.1014 18.5894 75.4673 18.1868C75.8332 17.7842 76.2791 17.4626 76.7766 17.2425C77.2741 17.0224 77.8121 16.9087 78.3561 16.9087C78.9001 16.9087 79.4381 17.0224 79.9355 17.2425C80.433 17.4626 80.879 17.7842 81.2449 18.1868C81.6108 18.5894 81.8885 19.0639 82.0602 19.5801C82.2319 20.0963 82.2939 20.6427 82.2421 21.1842C82.2949 21.7263 82.2337 22.2734 82.0624 22.7904C81.8911 23.3074 81.6136 23.7829 81.2476 24.1862C80.8816 24.5896 80.4353 24.9119 79.9373 25.1325C79.4393 25.3531 78.9007 25.467 78.3561 25.467C77.8114 25.467 77.2728 25.3531 76.7748 25.1325C76.2769 24.9119 75.8305 24.5896 75.4646 24.1862C75.0986 23.7829 74.821 23.3074 74.6498 22.7904C74.4785 22.2734 74.4173 21.7263 74.4701 21.1842ZM80.5694 21.1842C80.5694 19.398 79.767 18.3535 78.3588 18.3535C76.9452 18.3535 76.15 19.398 76.15 21.1842C76.15 22.9847 76.9452 24.0212 78.3588 24.0212C79.767 24.0212 80.5694 22.9775 80.5694 21.1842H80.5694Z" fill="white"/>
<path d="M92.5732 25.3042H90.8862L89.1831 19.2353H89.0545L87.3585 25.3042H85.6876L83.4162 17.064H85.0657L86.5418 23.3517H86.6634L88.3575 17.064H89.9176L91.6118 23.3517H91.7405L93.2094 17.064H94.8357L92.5732 25.3042Z" fill="white"/>
<path d="M96.7463 17.0632H98.3117V18.3722H98.4333C98.6394 17.902 98.9871 17.5079 99.4279 17.2448C99.8687 16.9816 100.381 16.8625 100.892 16.9041C101.293 16.874 101.696 16.9344 102.07 17.081C102.445 17.2276 102.781 17.4565 103.055 17.7508C103.329 18.0452 103.533 18.3974 103.653 18.7813C103.772 19.1653 103.803 19.5712 103.744 19.9689V25.3033H102.118V20.3773C102.118 19.0531 101.543 18.3945 100.34 18.3945C100.068 18.3819 99.7961 18.4282 99.5435 18.5304C99.2908 18.6325 99.0633 18.7881 98.8764 18.9865C98.6895 19.1848 98.5477 19.4212 98.4607 19.6795C98.3738 19.9377 98.3436 20.2118 98.3725 20.4827V25.3034H96.7462L96.7463 17.0632Z" fill="white"/>
<path d="M106.336 13.8462H107.962V25.3032H106.336V13.8462Z" fill="white"/>
<path d="M110.222 21.18C110.171 20.6384 110.233 20.092 110.404 19.5758C110.576 19.0596 110.854 18.585 111.22 18.1824C111.586 17.7799 112.032 17.4582 112.529 17.2381C113.027 17.018 113.565 16.9043 114.109 16.9043C114.653 16.9043 115.191 17.018 115.688 17.2381C116.186 17.4582 116.632 17.7799 116.998 18.1824C117.364 18.585 117.642 19.0596 117.813 19.5758C117.985 20.092 118.047 20.6384 117.995 21.18C118.048 21.7221 117.987 22.2692 117.815 22.7862C117.644 23.3032 117.367 23.7787 117.001 24.182C116.635 24.5853 116.188 24.9076 115.69 25.1282C115.192 25.3488 114.654 25.4627 114.109 25.4627C113.564 25.4627 113.026 25.3488 112.528 25.1282C112.03 24.9076 111.583 24.5853 111.217 24.182C110.851 23.7787 110.574 23.3032 110.402 22.7862C110.231 22.2692 110.17 21.7221 110.222 21.18ZM116.322 21.18C116.322 19.3938 115.519 18.3492 114.111 18.3492C112.698 18.3492 111.902 19.3938 111.902 21.18C111.902 22.9805 112.698 24.017 114.111 24.017C115.519 24.0169 116.322 22.9733 116.322 21.18H116.322Z" fill="white"/>
<path d="M119.708 22.9776C119.708 21.4943 120.812 20.6392 122.772 20.5177L125.004 20.389V19.6778C125.004 18.8075 124.429 18.316 123.317 18.316C122.41 18.316 121.781 18.6493 121.6 19.2319H120.026C120.192 17.8165 121.523 16.9087 123.392 16.9087C125.458 16.9087 126.624 17.9371 126.624 19.6778V25.308H125.058V24.1499H124.929C124.668 24.5653 124.301 24.904 123.867 25.1313C123.432 25.3586 122.944 25.4664 122.454 25.4437C122.108 25.4797 121.759 25.4428 121.428 25.3354C121.097 25.228 120.793 25.0524 120.534 24.8201C120.275 24.5877 120.068 24.3037 119.925 23.9864C119.783 23.669 119.709 23.3254 119.708 22.9776ZM125.004 22.2735V21.5846L122.992 21.7132C121.857 21.7892 121.343 22.1752 121.343 22.9016C121.343 23.6433 121.986 24.0749 122.871 24.0749C123.13 24.1011 123.392 24.0749 123.641 23.9979C123.89 23.9209 124.12 23.7946 124.319 23.6265C124.519 23.4584 124.682 23.252 124.799 23.0196C124.917 22.7872 124.987 22.5334 125.004 22.2735Z" fill="white"/>
<path d="M128.761 21.1795C128.761 18.5757 130.099 16.9263 132.181 16.9263C132.696 16.9025 133.207 17.0259 133.655 17.2819C134.102 17.5379 134.468 17.916 134.708 18.3719H134.83V13.8462H136.456V25.3032H134.898V24.0013H134.769C134.51 24.4542 134.132 24.8275 133.676 25.081C133.219 25.3344 132.703 25.4582 132.181 25.439C130.085 25.4391 128.761 23.7895 128.761 21.1795ZM130.441 21.1795C130.441 22.9273 131.265 23.979 132.642 23.979C134.013 23.979 134.86 22.9121 134.86 21.1867C134.86 19.4693 134.004 18.3872 132.642 18.3872C131.273 18.3872 130.441 19.446 130.441 21.1795H130.441Z" fill="white"/>
<path d="M143.184 21.1842C143.132 20.6427 143.194 20.0963 143.366 19.5801C143.538 19.0639 143.816 18.5894 144.181 18.1868C144.547 17.7842 144.993 17.4626 145.491 17.2425C145.988 17.0224 146.526 16.9087 147.07 16.9087C147.614 16.9087 148.152 17.0224 148.65 17.2425C149.147 17.4626 149.593 17.7842 149.959 18.1868C150.325 18.5894 150.603 19.0639 150.774 19.5801C150.946 20.0963 151.008 20.6427 150.956 21.1842C151.009 21.7263 150.948 22.2734 150.777 22.7904C150.605 23.3074 150.328 23.7829 149.962 24.1862C149.596 24.5896 149.149 24.9119 148.651 25.1325C148.153 25.3531 147.615 25.467 147.07 25.467C146.526 25.467 145.987 25.3531 145.489 25.1325C144.991 24.9119 144.545 24.5896 144.179 24.1862C143.813 23.7829 143.535 23.3074 143.364 22.7904C143.193 22.2734 143.131 21.7263 143.184 21.1842ZM149.284 21.1842C149.284 19.398 148.481 18.3535 147.073 18.3535C145.659 18.3535 144.864 19.398 144.864 21.1842C144.864 22.9847 145.659 24.0212 147.073 24.0212C148.481 24.0212 149.284 22.9775 149.284 21.1842Z" fill="white"/>
<path d="M153.138 17.0632H154.704V18.3722H154.825C155.031 17.902 155.379 17.5079 155.82 17.2448C156.261 16.9816 156.773 16.8625 157.284 16.9041C157.685 16.874 158.088 16.9344 158.462 17.081C158.837 17.2276 159.173 17.4565 159.447 17.7508C159.721 18.0452 159.925 18.3974 160.045 18.7813C160.164 19.1653 160.195 19.5712 160.136 19.9689V25.3033H158.51V20.3773C158.51 19.0531 157.935 18.3945 156.732 18.3945C156.46 18.3819 156.188 18.4282 155.935 18.5304C155.683 18.6325 155.455 18.7881 155.268 18.9865C155.081 19.1848 154.94 19.4212 154.853 19.6795C154.766 19.9377 154.736 20.2118 154.764 20.4827V25.3034H153.138V17.0632Z" fill="white"/>
<path d="M169.326 15.0117V17.1008H171.111V18.4706H169.326V22.7078C169.326 23.5709 169.681 23.9489 170.491 23.9489C170.698 23.9482 170.905 23.9357 171.111 23.9114V25.266C170.819 25.3182 170.523 25.346 170.226 25.3491C168.418 25.3491 167.698 24.7129 167.698 23.1242V18.4705H166.39V17.1007H167.698V15.0117H169.326Z" fill="white"/>
<path d="M173.332 13.8462H174.944V18.3872H175.073C175.289 17.9126 175.646 17.5163 176.096 17.2521C176.546 16.988 177.066 16.8689 177.585 16.911C177.984 16.8893 178.383 16.9559 178.753 17.1061C179.123 17.2562 179.456 17.4862 179.727 17.7796C179.998 18.073 180.201 18.4226 180.321 18.8035C180.442 19.1844 180.477 19.5871 180.423 19.983V25.3032H178.795V20.3842C178.795 19.068 178.182 18.4014 177.033 18.4014C176.754 18.3785 176.473 18.4169 176.21 18.514C175.947 18.6111 175.708 18.7645 175.51 18.9635C175.313 19.1625 175.161 19.4023 175.066 19.666C174.97 19.9298 174.934 20.2112 174.959 20.4905V25.3031H173.332L173.332 13.8462Z" fill="white"/>
<path d="M189.906 23.0788C189.685 23.8319 189.206 24.4833 188.553 24.9191C187.901 25.3549 187.115 25.5474 186.335 25.4627C185.792 25.4771 185.253 25.3731 184.754 25.158C184.255 24.943 183.81 24.6219 183.447 24.2173C183.085 23.8126 182.815 23.3339 182.657 22.8146C182.498 22.2952 182.454 21.7475 182.529 21.2095C182.456 20.6699 182.501 20.121 182.659 19.6001C182.817 19.0791 183.086 18.5983 183.446 18.1901C183.806 17.7818 184.25 17.4558 184.747 17.234C185.245 17.0122 185.784 16.8998 186.328 16.9044C188.621 16.9044 190.004 18.4709 190.004 21.0585V21.6259H184.185V21.7171C184.16 22.0194 184.198 22.3238 184.297 22.6107C184.396 22.8975 184.554 23.1605 184.76 23.3828C184.967 23.605 185.218 23.7817 185.497 23.9013C185.776 24.021 186.076 24.0811 186.38 24.0777C186.769 24.1244 187.163 24.0544 187.512 23.8765C187.861 23.6986 188.149 23.4209 188.34 23.0787L189.906 23.0788ZM184.185 20.4232H188.347C188.368 20.1466 188.33 19.8688 188.237 19.6077C188.144 19.3465 187.997 19.1077 187.806 18.9067C187.615 18.7057 187.384 18.5468 187.128 18.4403C186.872 18.3339 186.596 18.2822 186.319 18.2885C186.038 18.285 185.759 18.3378 185.498 18.4438C185.238 18.5499 185.001 18.707 184.802 18.9059C184.603 19.1049 184.446 19.3416 184.34 19.6022C184.234 19.8628 184.182 20.1419 184.185 20.4232H184.185Z" fill="white"/>
</svg>
