<svg width="240" height="70" viewBox="0 0 240 70" fill="none" xmlns="http://www.w3.org/2000/svg">
<path d="M231.111 70H8.88889C4 70 0 66.0625 0 61.25V8.75001C0 3.93751 4 1.23103e-05 8.88889 1.23103e-05H231.111C236 1.23103e-05 240 3.93751 240 8.75001V61.25C240 66.0625 236 70 231.111 70Z" fill="black"/>
<path d="M82.9822 17.9278C82.9822 19.3939 82.548 20.5615 81.6784 21.4325C80.6907 22.4682 79.4034 22.9863 77.8209 22.9863C76.3054 22.9863 75.0169 22.4613 73.9572 21.4099C72.8957 20.3592 72.366 19.0564 72.366 17.5018C72.366 15.9466 72.8957 14.6444 73.9572 13.593C75.0169 12.5423 76.3054 12.0166 77.8209 12.0166C78.5729 12.0166 79.2928 12.1636 79.9764 12.4569C80.6599 12.7509 81.2082 13.1412 81.6184 13.63L80.6954 14.5534C80.0003 13.7229 79.0433 13.308 77.8209 13.308C76.7156 13.308 75.7599 13.6963 74.9533 14.4735C74.1466 15.2515 73.7434 16.2604 73.7434 17.5018C73.7434 18.7433 74.1466 19.7522 74.9533 20.5302C75.7599 21.3074 76.7156 21.6957 77.8209 21.6957C78.9934 21.6957 79.9709 21.3053 80.7535 20.5234C81.2615 20.014 81.5554 19.3059 81.634 18.3966H77.8209V17.1354H82.909C82.9582 17.4096 82.9822 17.6728 82.9822 17.9278Z" fill="white"/>
<path d="M82.982 17.9266H82.807C82.8056 19.3593 82.3872 20.4722 81.5545 21.3076L81.5526 21.309L81.5519 21.3104C80.5955 22.3104 79.3663 22.8081 77.8207 22.8102C76.3456 22.8081 75.111 22.3049 74.0801 21.285C73.0514 20.263 72.5427 19.0155 72.5408 17.5007C72.5427 15.9852 73.0514 14.7383 74.0801 13.717C75.111 12.6964 76.3456 12.1926 77.8207 12.1905C78.5501 12.1905 79.2447 12.3327 79.9071 12.6164C80.5701 12.9022 81.0939 13.2767 81.4842 13.7416L81.6182 13.6288L81.4945 13.5051L80.5715 14.4292L80.6953 14.5523L80.83 14.4403C80.1025 13.5686 79.0814 13.1292 77.8207 13.1318C76.6745 13.1304 75.6661 13.5399 74.8321 14.3466C73.99 15.156 73.5668 16.2216 73.5682 17.5007C73.5668 18.7797 73.99 19.8453 74.8321 20.6547C75.6661 21.4614 76.6745 21.8709 77.8207 21.8695C79.0321 21.8716 80.0644 21.4607 80.8771 20.6459C81.4199 20.1017 81.7276 19.3478 81.8083 18.4105L81.8245 18.2204H77.9957V17.3092H82.9088V17.1342L82.7365 17.165C82.7844 17.4303 82.807 17.6825 82.807 17.9266H82.982H83.157C83.157 17.6606 83.1323 17.3873 83.081 17.1029L83.0551 16.9592H77.6457V18.3954V18.5704H81.6338V18.3954L81.4595 18.3804C81.3823 19.261 81.102 19.9241 80.6296 20.3985C79.8777 21.1477 78.9549 21.5174 77.8207 21.5195C76.7564 21.5181 75.8534 21.1517 75.0748 20.4032C74.3037 19.6574 73.9201 18.7052 73.9182 17.5007C73.9201 16.2961 74.3037 15.344 75.0748 14.5981C75.8534 13.8496 76.7564 13.4832 77.8207 13.4818C79.0041 13.4846 79.8976 13.8755 80.5614 14.6651L80.6844 14.8114L81.7419 13.7525L81.8553 13.6391L81.7521 13.5166C81.3221 13.004 80.7493 12.5972 80.0451 12.2951C79.3397 11.9922 78.5953 11.8405 77.8207 11.8405C76.265 11.8391 74.9224 12.3859 73.8333 13.4681C72.7403 14.5482 72.1894 15.9059 72.1908 17.5007C72.1894 19.0947 72.7403 20.4531 73.834 21.5339C74.9224 22.6154 76.265 23.1616 77.8207 23.1602C79.4409 23.1616 80.7849 22.6234 81.8048 21.5523L81.6782 21.4313L81.802 21.5551C82.7085 20.6493 83.1582 19.4257 83.157 17.9266H82.982Z" fill="white"/>
<path d="M91.0486 13.5399H86.2669V16.8691H90.5791V18.1309H86.2669V21.4601H91.0486V22.75H84.9189V12.25H91.0486V13.5399Z" fill="white"/>
<path d="M91.0485 13.5368V13.3618H86.0918V17.041H90.404V17.9522L86.0918 17.9528V21.6319H90.8735V22.5719H85.0938V12.4219H90.8735V13.5368H91.0485V13.3618V13.5368H91.2235V12.2469V12.0719H84.7438V22.9219H91.2235V21.4569V21.2819H86.4418V18.3028H90.754V16.866V16.691H86.4418V13.7118H91.2235V13.5368H91.0485Z" fill="white"/>
<path d="M96.7381 22.75H95.388V13.5399H92.4553V12.25H99.6707V13.5399H96.7381V22.75Z" fill="white"/>
<path d="M96.7379 22.7469V22.5719H95.5628V13.3618H92.6302V12.4219H99.4956V13.3618H96.5629V22.7469H96.7379V22.5719V22.7469H96.9129V13.7118H99.8456V12.2469V12.0719H92.2802V13.5368V13.7118H95.2128V22.9219H96.7379H96.9129V22.7469H96.7379Z" fill="white"/>
<path d="M104.891 22.75V12.25H106.24V22.75H104.891Z" fill="white"/>
<path d="M104.891 22.7469H105.066V12.4219H106.065V22.5719H104.891V22.7469H105.066H104.891V22.9219H106.24H106.415V12.0719H104.891H104.716V22.9219H104.891V22.7469Z" fill="white"/>
<path d="M112.225 22.75H110.875V13.5399H107.942V12.25H115.158V13.5399H112.225V22.75Z" fill="white"/>
<path d="M112.225 22.7469V22.5719H111.05V13.3618H108.117V12.4219H114.982V13.3618H112.05V22.7469H112.225V22.5719V22.7469H112.4V13.7118H115.332V12.2469V12.0719H107.767V13.5368V13.7118H110.7V22.9219H112.225H112.4V22.7469H112.225Z" fill="white"/>
<path d="M122.114 20.5159C122.891 21.3027 123.842 21.6957 124.966 21.6957C126.091 21.6957 127.042 21.3027 127.818 20.5159C128.596 19.7291 128.986 18.7233 128.986 17.5018C128.986 16.2803 128.596 15.2746 127.818 14.4878C127.042 13.701 126.091 13.308 124.966 13.308C123.842 13.308 122.891 13.701 122.114 14.4878C121.338 15.2746 120.948 16.2803 120.948 17.5018C120.948 18.7233 121.338 19.7291 122.114 20.5159ZM128.816 21.3949C127.784 22.4564 126.5 22.9863 124.966 22.9863C123.431 22.9863 122.148 22.4564 121.118 21.3949C120.085 20.3346 119.571 19.0366 119.571 17.5018C119.571 15.9671 120.085 14.6689 121.118 13.6088C122.148 12.5471 123.431 12.0166 124.966 12.0166C126.492 12.0166 127.772 12.5499 128.809 13.6156C129.845 14.6814 130.363 15.9767 130.363 17.5018C130.363 19.0366 129.846 20.3346 128.816 21.3949Z" fill="white"/>
<path d="M122.114 20.5147L121.989 20.6377C122.796 21.456 123.801 21.8716 124.967 21.8695C126.131 21.8716 127.138 21.456 127.943 20.6377C128.754 19.8187 129.162 18.7591 129.161 17.5007C129.162 16.2422 128.754 15.1826 127.943 14.3636C127.138 13.5453 126.131 13.1297 124.967 13.1318C123.801 13.1297 122.796 13.5453 121.989 14.3636C121.18 15.1826 120.771 16.2422 120.773 17.5007C120.771 18.7591 121.18 19.8187 121.989 20.6377L122.114 20.5147L122.238 20.3917C121.496 19.6362 121.125 18.6859 121.123 17.5007C121.125 16.3154 121.496 15.3651 122.238 14.6097C122.988 13.8544 123.882 13.4839 124.967 13.4818C126.05 13.4839 126.947 13.8544 127.694 14.6097C128.438 15.3651 128.809 16.3154 128.81 17.5007C128.809 18.6859 128.438 19.6362 127.694 20.3917C126.947 21.147 126.05 21.5174 124.967 21.5195C123.882 21.5174 122.988 21.147 122.238 20.3917L122.114 20.5147ZM128.817 21.3937L128.691 21.2721C127.688 22.3002 126.461 22.8081 124.967 22.8102C123.472 22.8081 122.244 22.3002 121.243 21.2721L121.238 21.2667L121.243 21.2721C120.242 20.2405 119.747 18.9964 119.746 17.5007C119.747 16.0049 120.242 14.7609 121.243 13.7292C122.244 12.7011 123.472 12.1926 124.967 12.1905C126.451 12.1926 127.676 12.7032 128.685 13.7368C129.689 14.7731 130.186 16.0153 130.189 17.5007C130.186 18.9964 129.691 20.2405 128.691 21.2721L128.817 21.3937L128.942 21.5153C130.003 20.4258 130.54 19.0743 130.539 17.5007C130.54 15.936 130.001 14.5873 128.935 13.4928C127.869 12.3942 126.533 11.8385 124.967 11.8405C123.392 11.8385 122.052 12.3915 120.992 13.486V13.4853C119.929 14.5755 119.395 15.9271 119.396 17.5007C119.395 19.0743 119.929 20.4258 120.992 21.516L120.997 21.5209L120.992 21.5153C122.052 22.6098 123.392 23.1616 124.967 23.1602C126.541 23.1616 127.881 22.6098 128.942 21.5153L128.817 21.3937Z" fill="white"/>
<path d="M132.257 22.75V12.25H133.899L139.002 20.4183H139.06L139.002 18.3948V12.25H140.352V22.75H138.944L133.605 14.1859H133.547L133.605 16.2101V22.75H132.257Z" fill="white"/>
<path d="M132.257 22.7469H132.432V12.4219H133.802L138.905 20.5902H139.06H139.24L139.177 18.389V12.4219H140.177V22.5719H139.041L133.702 14.0077H133.547H133.367L133.43 16.2097V22.5719H132.257V22.7469H132.432H132.257V22.9219H133.605H133.78V16.2042L133.722 14.178L133.547 14.1827V14.3577H133.605V14.1827L133.457 14.2758L138.847 22.9219H140.352H140.527V12.0719H139.002H138.827V18.3937L138.885 20.4199L139.06 20.4152V20.2402H139.002V20.4152L139.15 20.3222L133.996 12.0719H132.257H132.082V22.9219H132.257V22.7469Z" fill="white"/>
<path d="M187.138 52.5014H190.403V30.6243H187.138V52.5014ZM216.55 38.5049L212.807 47.9897H212.695L208.81 38.5049H205.292L211.118 51.7617L207.797 59.1357H211.204L220.181 38.5049H216.55ZM198.032 50.0166C196.961 50.0166 195.47 49.482 195.47 48.1586C195.47 46.47 197.328 45.8227 198.931 45.8227C200.368 45.8227 201.042 46.1323 201.915 46.5549C201.661 48.5811 199.916 50.0166 198.032 50.0166ZM198.425 38.0263C196.061 38.0263 193.613 39.0681 192.6 41.376L195.498 42.5859C196.117 41.376 197.27 40.9815 198.481 40.9815C200.17 40.9815 201.887 41.9953 201.915 43.7966V44.0214C201.323 43.6837 200.058 43.1772 198.509 43.1772C195.386 43.1772 192.204 44.8936 192.204 48.1024C192.204 51.0297 194.766 52.9156 197.636 52.9156C199.832 52.9156 201.042 51.9306 201.803 50.7768H201.915V52.4652H205.067V44.0774C205.067 40.194 202.169 38.0263 198.425 38.0263ZM178.244 41.1681H173.6V33.6691H178.244C180.686 33.6691 182.072 35.6904 182.072 37.4185C182.072 39.1139 180.686 41.1681 178.244 41.1681ZM178.16 30.6243H170.336V52.5014H173.6V44.2129H178.16C181.779 44.2129 185.337 41.5926 185.337 37.4185C185.337 33.2446 181.779 30.6243 178.16 30.6243ZM135.494 50.0206C133.238 50.0206 131.349 48.1318 131.349 45.5376C131.349 42.9161 133.238 40.9987 135.494 40.9987C137.721 40.9987 139.469 42.9161 139.469 45.5376C139.469 48.1318 137.721 50.0206 135.494 50.0206ZM139.243 39.7299H139.13C138.398 38.8561 136.987 38.0667 135.211 38.0667C131.49 38.0667 128.079 41.3369 128.079 45.5376C128.079 49.7103 131.49 52.9526 135.211 52.9526C136.987 52.9526 138.398 52.163 139.13 51.2614H139.243V52.3325C139.243 55.1805 137.721 56.7028 135.268 56.7028C133.266 56.7028 132.026 55.2645 131.518 54.0524L128.671 55.2365C129.488 57.21 131.659 59.6348 135.268 59.6348C139.102 59.6348 142.344 57.3788 142.344 51.8814V38.5179H139.243V39.7299ZM144.6 52.5014H147.87V30.6236H144.6V52.5014ZM152.691 45.2841C152.607 42.4081 154.919 40.9425 156.582 40.9425C157.88 40.9425 158.979 41.5905 159.344 42.5217L152.691 45.2841ZM162.841 42.8033C162.221 41.1394 160.331 38.0667 156.469 38.0667C152.635 38.0667 149.449 41.0834 149.449 45.5096C149.449 49.6823 152.607 52.9526 156.835 52.9526C160.247 52.9526 162.221 50.8662 163.039 49.6542L160.501 47.9623C159.656 49.203 158.499 50.0206 156.835 50.0206C155.172 50.0206 153.988 49.2592 153.227 47.7654L163.179 43.6489L162.841 42.8033ZM83.5515 40.3505V43.508H91.1071C90.8815 45.2841 90.2895 46.5808 89.3872 47.4831C88.288 48.583 86.5681 49.795 83.5515 49.795C78.8995 49.795 75.2628 46.0455 75.2628 41.3936C75.2628 36.7418 78.8995 32.9917 83.5515 32.9917C86.0608 32.9917 87.8929 33.9787 89.2463 35.2475L91.4736 33.0204C89.5848 31.2156 87.0753 29.8342 83.5515 29.8342C77.1796 29.8342 71.823 35.0219 71.823 41.3936C71.823 47.7654 77.1796 52.9526 83.5515 52.9526C86.9913 52.9526 89.5848 51.8254 91.6144 49.7103C93.7008 47.624 94.3495 44.692 94.3495 42.3241C94.3495 41.5905 94.2933 40.9145 94.1799 40.3505H83.5515ZM102.94 50.0206C100.684 50.0206 98.7382 48.1598 98.7382 45.5096C98.7382 42.8313 100.684 40.9987 102.94 40.9987C105.195 40.9987 107.14 42.8313 107.14 45.5096C107.14 48.1598 105.195 50.0206 102.94 50.0206ZM102.94 38.0667C98.8229 38.0667 95.4678 41.1961 95.4678 45.5096C95.4678 49.795 98.8229 52.9526 102.94 52.9526C107.055 52.9526 110.41 49.795 110.41 45.5096C110.41 41.1961 107.055 38.0667 102.94 38.0667ZM119.238 50.0206C116.983 50.0206 115.037 48.1598 115.037 45.5096C115.037 42.8313 116.983 40.9987 119.238 40.9987C121.493 40.9987 123.438 42.8313 123.438 45.5096C123.438 48.1598 121.493 50.0206 119.238 50.0206ZM119.238 38.0667C115.121 38.0667 111.767 41.1961 111.767 45.5096C111.767 49.795 115.121 52.9526 119.238 52.9526C123.354 52.9526 126.709 49.795 126.709 45.5096C126.709 41.1961 123.354 38.0667 119.238 38.0667Z" fill="white"/>
<path d="M18.3923 56.666L18.2623 56.5416C17.753 56.0028 17.4524 55.1661 17.4524 54.0827V54.3376V15.6346C17.4524 15.6311 17.4524 15.6285 17.4524 15.6257C17.4524 15.629 17.4524 15.6318 17.4524 15.6353V15.891C17.4524 14.7178 17.8029 13.8341 18.3902 13.3042L40.0724 34.9858L18.3923 56.666ZM17.4524 15.6236C17.4524 15.5272 17.455 15.4336 17.4599 15.3413C17.455 15.4329 17.4524 15.5272 17.4524 15.6236ZM17.4599 15.3371C17.4599 15.3359 17.4599 15.3345 17.4604 15.3331C17.4599 15.3345 17.4599 15.3359 17.4599 15.3371ZM17.4604 15.3249C17.4604 15.3242 17.4604 15.3235 17.4604 15.3228C17.4604 15.3235 17.4604 15.3242 17.4604 15.3249Z" fill="url(#paint0_linear_4839_18696)"/>
<path d="M47.2987 42.4824L47.4635 42.3888L56.0261 37.5236C56.8425 37.0595 57.3866 36.4969 57.658 35.9015C57.3873 36.4969 56.843 37.0602 56.0261 37.5243L47.4635 42.3895L47.2987 42.4824ZM47.3008 42.226L40.0724 34.9964L47.3001 27.7681L56.0261 32.7255C57.1342 33.3551 57.7563 34.1666 57.8603 34.9957C57.8603 34.9964 57.8603 34.9978 57.8603 34.9991C57.7563 35.8263 57.1342 36.6385 56.0261 37.2679L47.3008 42.226Z" fill="url(#paint1_linear_4839_18696)"/>
<path d="M19.9374 57.4961C19.3318 57.4961 18.8033 57.2992 18.3911 56.9273L18.3918 56.9266C18.804 57.2985 19.3332 57.4961 19.9388 57.4961C19.9913 57.4961 20.0447 57.4947 20.0988 57.4921C20.044 57.4947 19.9899 57.4961 19.9374 57.4961ZM19.9381 57.2397C19.3325 57.2404 18.804 57.0428 18.3918 56.671V56.6704L40.0719 34.9902L47.3002 42.2198L21.8987 56.6526C21.1959 57.0511 20.53 57.2397 19.9381 57.2397ZM18.3857 56.9226C18.3474 56.8878 18.3098 56.8509 18.2728 56.8125L18.3857 56.9226Z" fill="url(#paint2_linear_4839_18696)"/>
<path d="M40.0724 35.002L18.3903 13.3203C18.8024 12.9492 19.3302 12.7523 19.9352 12.7523C20.5286 12.7523 21.195 12.9416 21.8992 13.3408L47.3001 27.7736L40.0724 35.002ZM47.4635 27.6103L21.8992 13.0853C21.195 12.686 20.5286 12.4966 19.9352 12.4966C19.9324 12.4966 19.9304 12.4966 19.9276 12.4966C19.9311 12.4966 19.9338 12.4966 19.938 12.4966C20.53 12.4966 21.1957 12.6853 21.8992 13.0846L47.4635 27.6103Z" fill="url(#paint3_linear_4839_18696)"/>
<path d="M20.0989 57.5059C20.6491 57.4744 21.2583 57.285 21.8988 56.9221L47.2983 42.49L21.8988 56.9221C21.2588 57.2857 20.6491 57.4744 20.0989 57.5059ZM18.3913 56.9411L18.3859 56.9364C18.3878 56.9378 18.3899 56.9397 18.3913 56.9411ZM18.273 56.8263L18.262 56.8155V56.8148C18.2662 56.8188 18.2695 56.8228 18.273 56.8263Z" fill="black"/>
<path d="M47.2985 42.4824L47.4634 42.3888L47.2985 42.4824Z" fill="url(#paint4_linear_4839_18696)"/>
<path d="M19.939 57.4961C19.3333 57.4961 18.8041 57.2985 18.392 56.9266L18.3913 56.9273C18.3899 56.9259 18.3878 56.924 18.3859 56.9226L18.273 56.8125C18.2695 56.809 18.2662 56.805 18.262 56.801L18.392 56.671C18.8041 57.0428 19.3326 57.2404 19.9383 57.2397C20.5301 57.2397 21.196 57.0511 21.8988 56.6526L47.3004 42.2198L47.4632 42.3826L47.2983 42.4762L21.8988 56.9083C21.2583 57.2712 20.6491 57.4606 20.0989 57.4921C20.0449 57.4947 19.9915 57.4961 19.939 57.4961Z" fill="url(#paint5_linear_4839_18696)"/>
<path d="M18.2623 56.8145C17.753 56.2756 17.4524 55.439 17.4524 54.3555V54.3548C17.4524 55.439 17.753 56.2749 18.2623 56.8138V56.8145Z" fill="black"/>
<path d="M18.2623 56.8066C17.753 56.2678 17.4524 55.4318 17.4524 54.3477V54.0927C17.4524 55.1762 17.753 56.0128 18.2623 56.5517L18.3923 56.6761L18.2623 56.8066Z" fill="url(#paint6_linear_4839_18696)"/>
<path d="M18.262 56.8066L18.392 56.6761V56.6766L18.262 56.8066Z" fill="url(#paint7_linear_4839_18696)"/>
<path d="M57.6575 35.9062C57.7921 35.6108 57.8598 35.3074 57.8598 35.0038C57.8598 35.0033 57.8598 35.0025 57.8598 35.0025C57.8598 35.3067 57.7921 35.6101 57.6575 35.9062Z" fill="black"/>
<path d="M47.4633 42.3887L47.3005 42.2259L56.0259 37.2678C57.134 36.6383 57.7561 35.8262 57.86 34.999C57.86 35.3026 57.7923 35.606 57.6577 35.9014C57.3863 36.4968 56.8422 37.0594 56.0259 37.5235L47.4633 42.3887Z" fill="url(#paint8_linear_4839_18696)"/>
<path d="M57.8601 34.9941V34.9934C57.8594 34.078 57.2476 33.1628 56.0259 32.4682L47.4633 27.603H47.4626L47.4633 27.6025L56.0259 32.4675C57.249 33.1621 57.8615 34.0787 57.8601 34.9941Z" fill="#404040"/>
<path d="M57.8604 35.002C57.7564 34.1728 57.1343 33.3613 56.0262 32.7317L47.3002 27.7743L47.4629 27.6115H47.4636L56.0262 32.4767C57.2479 33.1713 57.8597 34.0865 57.8604 35.002Z" fill="url(#paint9_linear_4839_18696)"/>
<path d="M17.4524 15.6406C17.4524 15.6399 17.4524 15.6392 17.4524 15.6385C17.4524 15.6392 17.4524 15.6399 17.4524 15.6406ZM17.4599 15.3562C17.4599 15.3548 17.4599 15.3535 17.4599 15.3521C17.4599 15.3535 17.4599 15.3548 17.4599 15.3562ZM17.4604 15.348C17.4604 15.3452 17.4604 15.3426 17.4604 15.3398C17.4604 15.3426 17.4604 15.3452 17.4604 15.348ZM17.4604 15.3377C17.5618 13.5399 18.5393 12.5015 19.9222 12.4954C19.3226 12.4989 18.8004 12.6957 18.3916 13.0641V13.0634L18.3867 13.0683C18.3437 13.1071 18.3027 13.1483 18.2623 13.1906C17.8029 13.6766 17.5131 14.4046 17.4604 15.3377Z" fill="#404040"/>
<path d="M17.4524 15.9043V15.6486C17.4524 15.6451 17.4524 15.6423 17.4524 15.639C17.4524 15.6383 17.4524 15.6376 17.4524 15.6369C17.4524 15.5405 17.455 15.4461 17.4599 15.3546C17.4599 15.3532 17.4599 15.3518 17.4599 15.3504C17.4599 15.3492 17.4599 15.3478 17.4604 15.3464C17.4604 15.3436 17.4604 15.341 17.4604 15.3382C17.4604 15.3375 17.4604 15.3368 17.4604 15.3361C17.5131 14.403 17.8029 13.675 18.2623 13.189L18.3902 13.3174C17.8029 13.8473 17.4524 14.7311 17.4524 15.9043ZM18.3867 13.0667L18.3916 13.0618C18.3902 13.0639 18.3881 13.0653 18.3867 13.0667Z" fill="url(#paint10_linear_4839_18696)"/>
<path d="M47.2997 27.7715L21.8988 13.3387C21.1946 12.9395 20.5282 12.7502 19.9348 12.7502C19.3298 12.7502 18.802 12.9471 18.3899 13.3182L18.262 13.1898C18.3024 13.1474 18.3433 13.1063 18.3864 13.0675C18.3878 13.0661 18.3899 13.0647 18.3913 13.0633C18.8001 12.6949 19.3223 12.498 19.9218 12.4945C19.9232 12.4945 19.9252 12.4945 19.9273 12.4945C19.9301 12.4945 19.932 12.4945 19.9348 12.4945C20.5282 12.4945 21.1946 12.6839 21.8988 13.0832L47.4632 27.6082L47.4625 27.6087L47.2997 27.7715Z" fill="url(#paint11_linear_4839_18696)"/>
<defs>
<linearGradient id="paint0_linear_4839_18696" x1="38.1498" y1="15.2264" x2="8.78045" y2="44.5958" gradientUnits="userSpaceOnUse">
<stop stop-color="#00A0FF"/>
<stop offset="0.00657445" stop-color="#00A1FF"/>
<stop offset="0.2601" stop-color="#00BEFF"/>
<stop offset="0.5122" stop-color="#00D2FF"/>
<stop offset="0.7604" stop-color="#00DFFF"/>
<stop offset="1" stop-color="#00E3FF"/>
</linearGradient>
<linearGradient id="paint1_linear_4839_18696" x1="59.2104" y1="34.9975" x2="16.8657" y2="34.9975" gradientUnits="userSpaceOnUse">
<stop stop-color="#FFE000"/>
<stop offset="0.4087" stop-color="#FFBD00"/>
<stop offset="0.7754" stop-color="#FFA500"/>
<stop offset="1" stop-color="#FF9C00"/>
</linearGradient>
<linearGradient id="paint2_linear_4839_18696" x1="43.4469" y1="39.007" x2="3.61989" y2="78.834" gradientUnits="userSpaceOnUse">
<stop stop-color="#FF3A44"/>
<stop offset="1" stop-color="#C31162"/>
</linearGradient>
<linearGradient id="paint3_linear_4839_18696" x1="12.7705" y1="0.308921" x2="30.5548" y2="18.0933" gradientUnits="userSpaceOnUse">
<stop stop-color="#32A071"/>
<stop offset="0.0685" stop-color="#2DA771"/>
<stop offset="0.4762" stop-color="#15CF74"/>
<stop offset="0.8009" stop-color="#06E775"/>
<stop offset="1" stop-color="#00F076"/>
</linearGradient>
<linearGradient id="paint4_linear_4839_18696" x1="59.2098" y1="34.9973" x2="16.8667" y2="34.9973" gradientUnits="userSpaceOnUse">
<stop stop-color="#CCB300"/>
<stop offset="0.4087" stop-color="#CC9700"/>
<stop offset="0.7754" stop-color="#CC8400"/>
<stop offset="1" stop-color="#CC7D00"/>
</linearGradient>
<linearGradient id="paint5_linear_4839_18696" x1="43.4471" y1="39.007" x2="3.62006" y2="78.834" gradientUnits="userSpaceOnUse">
<stop stop-color="#CC2E36"/>
<stop offset="1" stop-color="#9C0E4E"/>
</linearGradient>
<linearGradient id="paint6_linear_4839_18696" x1="38.1498" y1="15.2364" x2="8.78043" y2="44.6058" gradientUnits="userSpaceOnUse">
<stop stop-color="#008DE0"/>
<stop offset="0.00657445" stop-color="#008DE0"/>
<stop offset="0.2601" stop-color="#00A7E0"/>
<stop offset="0.5122" stop-color="#00B8E0"/>
<stop offset="0.7604" stop-color="#00C4E0"/>
<stop offset="1" stop-color="#00C7E0"/>
</linearGradient>
<linearGradient id="paint7_linear_4839_18696" x1="43.4473" y1="39.0135" x2="3.62224" y2="78.8409" gradientUnits="userSpaceOnUse">
<stop stop-color="#E0333C"/>
<stop offset="1" stop-color="#AB0F56"/>
</linearGradient>
<linearGradient id="paint8_linear_4839_18696" x1="59.2102" y1="34.9974" x2="16.8654" y2="34.9974" gradientUnits="userSpaceOnUse">
<stop stop-color="#E0C500"/>
<stop offset="0.4087" stop-color="#E0A600"/>
<stop offset="0.7754" stop-color="#E09100"/>
<stop offset="1" stop-color="#E08900"/>
</linearGradient>
<linearGradient id="paint9_linear_4839_18696" x1="59.2105" y1="35.0037" x2="16.8658" y2="35.0037" gradientUnits="userSpaceOnUse">
<stop stop-color="#FFE840"/>
<stop offset="0.4087" stop-color="#FFCE40"/>
<stop offset="0.7754" stop-color="#FFBC40"/>
<stop offset="1" stop-color="#FFB540"/>
</linearGradient>
<linearGradient id="paint10_linear_4839_18696" x1="38.1498" y1="15.2396" x2="8.78042" y2="44.609" gradientUnits="userSpaceOnUse">
<stop stop-color="#40B8FF"/>
<stop offset="0.00657445" stop-color="#40B9FF"/>
<stop offset="0.2601" stop-color="#40CEFF"/>
<stop offset="0.5122" stop-color="#40DDFF"/>
<stop offset="0.7604" stop-color="#40E7FF"/>
<stop offset="1" stop-color="#40EAFF"/>
</linearGradient>
<linearGradient id="paint11_linear_4839_18696" x1="12.7701" y1="0.306811" x2="30.5545" y2="18.0912" gradientUnits="userSpaceOnUse">
<stop stop-color="#65B895"/>
<stop offset="0.0685" stop-color="#62BD95"/>
<stop offset="0.4762" stop-color="#50DB97"/>
<stop offset="0.8009" stop-color="#44ED98"/>
<stop offset="1" stop-color="#40F498"/>
</linearGradient>
</defs>
</svg>
