<?xml version="1.0" encoding="utf-8"?>
<!-- Generator: Adobe Illustrator 24.1.0, SVG Export Plug-In . SVG Version: 6.00 Build 0)  -->
<svg version="1.1" id="Layer_1" xmlns="http://www.w3.org/2000/svg" xmlns:xlink="http://www.w3.org/1999/xlink" x="0px" y="0px"
	 viewBox="0 0 194.63 55.02" style="enable-background:new 0 0 194.63 55.02;" xml:space="preserve">
<style type="text/css">
	.st0{fill:#FC821F;}
	.st1{fill:#FFFFFF;}
	.st2{fill:#F0F2F6;}
	.st3{fill:#141414;}
	.st4{fill:#1D8A8B;}
	.st5{fill:#CDBFBF;}
	.st6{fill:#111E14;}
</style>
<g>
	<path class="st0" d="M194.63,3.5v39.73c0,1.95-1.58,3.5-3.54,3.5H41.98c-0.15,0-0.29,0-0.41-0.04c-0.96-0.18-1.66-1.03-1.66-2.03
		V10.54c0-0.92-0.74-1.7-1.66-1.7H19.35c-1.03,0-1.33,1.44-0.37,1.88l12.01,5.23c1.18,0.52,1.92,1.66,1.92,2.95v34.5
		c0,1.18-1.18,1.95-2.25,1.47l-18.72-8.14H3.5c-1.92,0-3.5-1.55-3.5-3.5V3.5C0,1.55,1.58,0,3.5,0h187.59
		C193.05,0,194.63,1.55,194.63,3.5z"/>
	<path class="st1" d="M32.91,46.69V18.91c0-1.29-0.74-2.43-1.92-2.95l-12.01-5.23c-0.96-0.44-0.66-1.88,0.37-1.88h18.91
		c0.92,0,1.66,0.77,1.66,1.7v34.13c0,1,0.7,1.84,1.66,2.03H32.91z"/>
	<g>
		<path class="st1" d="M66.12,37.62l-0.07-1.05h-0.03c-0.52,0.77-1.39,1.22-2.56,1.22c-2.22,0-3.85-1.72-3.85-4.1s1.62-4.1,3.85-4.1
			c1.15,0,2.04,0.43,2.54,1.19h0.03l0.08-1.02h1.82v7.86H66.12z M65.82,33.69c0-1.27-0.82-2.16-1.99-2.16
			c-1.19,0-2.01,0.89-2.01,2.16s0.82,2.16,2.01,2.16C65,35.85,65.82,34.96,65.82,33.69z"/>
		<path class="st1" d="M78.74,26.02v2.01h-0.08c-0.35-0.23-0.8-0.33-1.22-0.33c-0.72,0-1.14,0.43-1.14,1.2v0.87h2.26v1.86H76.3v6
			h-2.19v-6h-1.3v-1.86h1.3v-0.94c0-1.97,1.05-3.08,2.99-3.08C77.8,25.75,78.36,25.85,78.74,26.02z"/>
		<path class="st1" d="M87.45,33.69c0,2.39-1.74,4.1-4.2,4.1c-2.48,0-4.21-1.71-4.21-4.1c0-2.41,1.74-4.1,4.21-4.1
			C85.71,29.6,87.45,31.29,87.45,33.69z M81.25,33.69c0,1.27,0.82,2.16,2.01,2.16c1.17,0,1.99-0.89,1.99-2.16s-0.82-2.16-1.99-2.16
			C82.07,31.54,81.25,32.42,81.25,33.69z"/>
		<path class="st1" d="M96.89,33.69c0,2.39-1.74,4.1-4.2,4.1c-2.48,0-4.21-1.71-4.21-4.1c0-2.41,1.74-4.1,4.21-4.1
			C95.15,29.6,96.89,31.29,96.89,33.69z M90.69,33.69c0,1.27,0.82,2.16,2.01,2.16c1.17,0,1.99-0.89,1.99-2.16s-0.82-2.16-1.99-2.16
			C91.51,31.54,90.69,32.42,90.69,33.69z"/>
		<path class="st1" d="M103.24,37.52c-0.38,0.18-0.87,0.27-1.54,0.27c-1.91,0-2.93-1.04-2.93-3.03v-3.14h-1.3v-1.86h1.37l0.28-2.21
			h1.84v2.21h2.26v1.86h-2.26v3.06c0,0.75,0.4,1.17,1.09,1.17c0.4,0,0.77-0.1,1.1-0.45h0.08V37.52z"/>
		<path class="st1" d="M110.89,27.32c0,0.8-0.57,1.35-1.35,1.35c-0.79,0-1.35-0.55-1.35-1.35c0-0.79,0.57-1.34,1.35-1.34
			C110.33,25.98,110.89,26.54,110.89,27.32z M108.44,29.76h2.19v7.86h-2.19V29.76z"/>
		<path class="st1" d="M120.04,32.96v4.67h-2.19v-4.4c0-1.09-0.54-1.69-1.45-1.69c-1.02,0-1.62,0.69-1.62,1.91v4.18h-2.19v-7.86
			h1.82l0.08,1.12h0.03c0.47-0.82,1.32-1.29,2.46-1.29C118.9,29.6,120.04,30.83,120.04,32.96z"/>
		<path class="st1" d="M130.52,37.52c-0.38,0.18-0.87,0.27-1.54,0.27c-1.91,0-2.93-1.04-2.93-3.03v-3.14h-1.3v-1.86h1.37l0.28-2.21
			h1.84v2.21h2.26v1.86h-2.26v3.06c0,0.75,0.4,1.17,1.09,1.17c0.4,0,0.77-0.1,1.1-0.45h0.08V37.52z"/>
		<path class="st1" d="M139.49,32.96v4.67h-2.19v-4.4c0-1.09-0.54-1.69-1.45-1.69c-1.02,0-1.62,0.69-1.62,1.91v4.18h-2.19V25.92
			h2.19v4.57h0.03c0.5-0.59,1.24-0.89,2.17-0.89C138.36,29.6,139.49,30.83,139.49,32.96z"/>
		<path class="st1" d="M143.03,34.25c0.23,1.07,1.2,1.66,2.56,1.66c1.14,0,2.11-0.33,2.74-0.95h0.08v2.11
			c-0.65,0.47-1.71,0.74-2.93,0.74c-2.78,0-4.67-1.67-4.67-4.1c0-2.41,1.71-4.1,4.1-4.1c2.44,0,3.96,1.45,3.96,3.76v0.89H143.03z
			 M143.03,32.92h3.88c-0.15-0.95-0.89-1.44-1.92-1.44C144.05,31.49,143.25,32,143.03,32.92z"/>
		<path class="st1" d="M160.1,37.62l-0.07-1.05H160c-0.52,0.77-1.39,1.22-2.56,1.22c-2.22,0-3.85-1.72-3.85-4.1s1.62-4.1,3.85-4.1
			c0.97,0,1.72,0.3,2.26,0.84h0.03v-4.52h2.19v11.71H160.1z M159.8,33.69c0-1.27-0.82-2.16-1.99-2.16c-1.19,0-2.01,0.89-2.01,2.16
			s0.82,2.16,2.01,2.16C158.98,35.85,159.8,34.96,159.8,33.69z"/>
		<path class="st1" d="M171.82,33.69c0,2.39-1.74,4.1-4.2,4.1c-2.48,0-4.21-1.71-4.21-4.1c0-2.41,1.74-4.1,4.21-4.1
			C170.08,29.6,171.82,31.29,171.82,33.69z M165.61,33.69c0,1.27,0.82,2.16,2.01,2.16c1.17,0,1.99-0.89,1.99-2.16
			s-0.82-2.16-1.99-2.16C166.43,31.54,165.61,32.42,165.61,33.69z"/>
		<path class="st1" d="M181.26,33.69c0,2.39-1.74,4.1-4.2,4.1c-2.48,0-4.21-1.71-4.21-4.1c0-2.41,1.74-4.1,4.21-4.1
			C179.52,29.6,181.26,31.29,181.26,33.69z M175.05,33.69c0,1.27,0.82,2.16,2.01,2.16c1.17,0,1.99-0.89,1.99-2.16
			s-0.82-2.16-1.99-2.16C175.87,31.54,175.05,32.42,175.05,33.69z"/>
		<path class="st1" d="M188.19,29.9v2.14h-0.08c-0.33-0.23-0.75-0.37-1.24-0.37c-1.34,0-1.94,0.82-1.94,2.58v3.38h-2.19v-7.86h1.82
			l0.1,1.22h0.03c0.43-0.92,1.2-1.39,2.34-1.39C187.54,29.6,187.96,29.71,188.19,29.9z"/>
	</g>
</g>
</svg>
